<svg width="70" height="70" viewBox="0 0 70 70" fill="none" xmlns="http://www.w3.org/2000/svg">
<rect opacity="0.1" width="69.5462" height="69.5462" rx="15" fill="#473BF0"/>
<path fill-rule="evenodd" clip-rule="evenodd" d="M26.4099 27.8875C26.4099 23.3665 29.7757 18.4868 35.2132 18.4868C40.6507 18.4868 44.0165 23.3665 44.0165 27.8875C44.0165 34.5873 39.4469 38.7344 35.2132 38.7344C30.9796 38.7344 26.4099 34.5873 26.4099 27.8875ZM27.9092 28.6497C28.2276 34.0038 31.8443 37.2882 35.2138 37.2882C38.5832 37.2882 42.1992 34.0045 42.5191 28.6519C40.3366 28.3598 38.2971 27.4392 36.6605 25.9959C34.6386 27.7849 32.06 28.7633 29.3236 28.7633C28.8563 28.7633 28.3853 28.7177 27.9092 28.6497Z" fill="#473BF0"/>
<path opacity="0.5" d="M48.3984 42.4165L40.7704 37.854C38.9826 39.3926 36.8456 40.2387 34.7731 40.2387C32.7007 40.2387 30.5637 39.3926 28.7759 37.854L21.1478 42.4165C20.0496 43.0732 19.3673 44.2747 19.3673 45.5515V51.208C19.3673 51.6124 19.696 51.9393 20.1009 51.9393H34.0395V44.6264C34.0395 44.222 34.3674 43.8952 34.7731 43.8952C35.1788 43.8952 35.5067 44.222 35.5067 44.6264V51.9393H49.4453C49.8503 51.9393 50.1789 51.6124 50.1789 51.208V45.5515C50.1789 44.2747 49.4967 43.0732 48.3984 42.4165Z" fill="#473BF0"/>
</svg>
