<svg width="74" height="70" viewBox="0 0 74 70" fill="none" xmlns="http://www.w3.org/2000/svg">
<rect opacity="0.1" width="73.0122" height="69.5672" rx="15" fill="#161C2D"/>
<path d="M44.0301 28.4952C42.0754 26.6406 39.5218 25.7134 36.9682 25.7134V35.2238L29.9064 41.9525C33.8074 45.6695 40.1207 45.6695 44.0218 41.9525C47.9228 38.2355 47.9228 32.2122 44.0301 28.4952Z" fill="#161C2D"/>
<path opacity="0.5" fill-rule="evenodd" clip-rule="evenodd" d="M20.3325 35.2238C20.3325 26.4663 27.777 19.373 36.9682 19.373C46.1594 19.373 53.6039 26.4663 53.6039 35.2238C53.6039 43.9734 46.1594 51.0745 36.9682 51.0745C27.777 51.0745 20.3325 43.9813 20.3325 35.2238ZM23.6597 35.2238C23.6597 42.2298 29.6152 47.9044 36.9682 47.9044C44.3212 47.9044 50.2768 42.2298 50.2768 35.2238C50.2768 28.2178 44.3212 22.5432 36.9682 22.5432C29.6152 22.5432 23.6597 28.2178 23.6597 35.2238Z" fill="#161C2D"/>
</svg>
