<svg width="70" height="70" viewBox="0 0 70 70" fill="none" xmlns="http://www.w3.org/2000/svg">
<rect opacity="0.1" width="69.5462" height="69.5462" rx="15" fill="#68D585"/>
<path opacity="0.5" d="M49.4432 34.333C48.1203 40.2815 41.7261 44.8079 34.0553 44.8079C32.9677 44.8079 31.8822 44.7099 30.8116 44.5239C33.4418 46.8012 37.5139 47.95 41.7221 47.3276L47.3544 50.1085C47.4503 50.1555 47.5544 50.179 47.6585 50.179C47.7829 50.179 47.9067 50.1454 48.0162 50.0789C48.2162 49.9567 48.3386 49.7406 48.3386 49.5076V44.3856C50.0955 42.8119 51.0593 40.8273 51.0593 38.7655C51.0593 37.1891 50.49 35.6664 49.4432 34.333Z" fill="#68D585"/>
<path d="M33.8928 20.2476C25.883 20.2476 19.3673 25.3709 19.3673 31.6687C19.3673 34.0893 20.3225 36.3971 22.1341 38.3601V45.1053C22.1341 45.3385 22.2586 45.5541 22.4619 45.6771C22.5733 45.7436 22.6992 45.7772 22.8258 45.7772C22.9316 45.7772 23.0374 45.7537 23.1349 45.7066L29.5884 42.5725C30.996 42.9158 32.4423 43.0898 33.8928 43.0898C41.9025 43.0898 48.4182 37.9665 48.4182 31.6687C48.4182 25.3709 41.9025 20.2476 33.8928 20.2476Z" fill="#68D585"/>
</svg>
