<svg width="24" height="24" viewBox="0 0 24 24" fill="none" xmlns="http://www.w3.org/2000/svg">
<g id="bill 1">
<g id="Group">
<g id="Group_2">
<path id="Vector" d="M18.0176 22.2463C17.8235 22.2222 17.6469 22.3602 17.6228 22.5543C17.5709 22.9746 17.2119 23.2915 16.7873 23.2915H2.90654C2.44229 23.2915 2.06443 22.9142 2.06443 22.4494V8.10912L3.99094 14.4605C4.03721 14.6135 4.17797 14.7123 4.32957 14.7123C4.36355 14.7123 4.39852 14.7071 4.4325 14.6967C4.62 14.64 4.7258 14.4421 4.66866 14.2551L2.90133 8.42792C3.14222 9.02727 3.72975 9.45186 4.41502 9.45186C5.31427 9.45186 6.04632 8.71981 6.04632 7.82056C6.04632 7.19127 6.04632 4.23828 6.04632 3.75172C8.40661 3.03537 11.2412 2.17602 13.8676 1.37937C14.0546 1.32223 14.1604 1.1248 14.1037 0.937296C14.0466 0.750265 13.8487 0.644468 13.6616 0.70114L7.1085 2.68902C6.73018 1.9475 5.95894 1.43886 5.07057 1.43886C3.80954 1.43886 2.78372 2.46467 2.78372 3.7257V4.00105L2.46727 4.09691C1.80891 4.29626 1.36683 4.89233 1.36683 5.57998L1.35596 5.99937V22.4495C1.35596 23.3048 2.05163 24 2.90649 24H16.7873C17.5689 24 18.2301 23.4157 18.326 22.6412C18.3502 22.4471 18.2118 22.27 18.0176 22.2463ZM3.49224 3.72575C3.49224 2.85533 4.20019 2.14733 5.07066 2.14733C5.63836 2.14733 6.13711 2.44864 6.4148 2.89972L5.80364 3.08487C5.24194 2.43875 4.17488 2.75984 4.06889 3.611C4.05643 3.70869 4.06079 7.11847 4.06088 7.24911C4.06088 7.44462 4.21955 7.60334 4.41511 7.60334C4.61068 7.60334 4.76935 7.44467 4.76935 7.24911C4.76935 6.98825 4.76935 3.88962 4.76935 3.73475C4.76935 3.57795 4.89685 3.45041 5.05369 3.45041C5.21054 3.45041 5.33804 3.57791 5.33804 3.73475C5.33804 4.22023 5.33804 7.28042 5.33804 7.82056C5.33804 8.3292 4.92385 8.74344 4.41516 8.74344C3.90647 8.74344 3.49229 8.32925 3.49229 7.82056C3.49224 6.94625 3.49224 4.61052 3.49224 3.72575ZM2.32186 4.98725C2.32233 4.98631 2.3228 4.98584 2.32327 4.98631C2.35557 4.96423 2.51114 4.80252 2.78377 4.76384C2.79525 7.94708 2.75785 7.86303 2.81775 8.15258L2.11172 5.82509C2.0183 5.51375 2.11121 5.19922 2.32186 4.98725Z" fill="white"/>
</g>
</g>
<g id="Group_3">
<g id="Group_4">
<path id="Vector_2" d="M17.6842 1.10118C17.4283 0.257807 16.5496 -0.177006 15.7506 0.0678222L15.0176 0.289822C14.8306 0.346963 14.7248 0.5444 14.7815 0.7319C14.8382 0.918932 15.0361 1.02473 15.2231 0.968057C15.9177 0.767291 15.994 0.70926 16.2012 0.70926C16.5682 0.70926 16.8998 0.954838 17.0065 1.3072L18.0243 4.66335L18.3379 5.69676L21.8981 17.4343C22.0372 17.8891 21.7676 18.354 21.337 18.4846C7.14785 22.7885 7.99901 22.5502 7.80898 22.5502C7.44152 22.5502 7.11045 22.3046 7.00371 21.9522L5.08005 15.6107C5.02338 15.4237 4.82548 15.3179 4.63845 15.3745C4.45095 15.4317 4.34562 15.6296 4.40229 15.8166L6.32548 22.1581C6.52526 22.8165 7.12127 23.2586 7.80898 23.2586C7.96104 23.2586 8.11268 23.2359 8.25954 23.1915L17.6294 20.3492V21.1814C17.6294 21.3769 17.7876 21.5356 17.9837 21.5356C18.1792 21.5356 18.3379 21.377 18.3379 21.1814V20.1343L21.5424 19.1623C22.2008 18.9625 22.6433 18.3665 22.6433 17.6793C22.6433 17.2482 22.818 18.1058 17.6842 1.10118Z" fill="white"/>
</g>
</g>
<g id="Group_5">
<g id="Group_6">
<path id="Vector_3" d="M12.0954 8.61475C11.796 7.62752 11.004 7.58036 10.5308 7.55229C10.1035 7.52097 9.80658 7.54061 9.70988 7.22168C9.61702 6.91554 9.83265 6.75724 10.1394 6.66415C10.5882 6.52802 10.7442 6.7054 10.9598 6.63996C11.2134 6.56304 11.2753 6.26201 11.2211 6.08336C11.1057 5.70302 10.5257 5.74221 10.2151 5.79283L10.1719 5.65043C10.1008 5.4161 9.85238 5.2833 9.61805 5.35436C9.38372 5.42543 9.25093 5.67386 9.32204 5.90824L9.38138 6.1038C8.88676 6.42907 8.71187 6.92299 8.88877 7.50626C9.14363 8.34644 9.81329 8.38999 10.3514 8.42496C10.8881 8.45983 11.1515 8.49452 11.2743 8.89938C11.3799 9.24757 11.248 9.46469 10.8592 9.58258C10.2328 9.77257 10.1387 9.31038 9.79707 9.41402C9.57216 9.48222 9.46899 9.77013 9.5303 9.9723C9.6309 10.304 10.1434 10.5137 10.7048 10.4671L10.7476 10.6083C10.8187 10.8426 11.0671 10.9754 11.3015 10.9043C11.5358 10.8333 11.6686 10.5848 11.5975 10.3504L11.5519 10.1999C12.1043 9.86824 12.3023 9.29707 12.0954 8.61475Z" fill="white"/>
</g>
</g>
<g id="Group_7">
<g id="Group_8">
<path id="Vector_4" d="M17.5378 10.4738C17.4811 10.2865 17.2831 10.1809 17.096 10.2376L6.99832 13.3006C6.81114 13.3574 6.70539 13.5552 6.76216 13.7424C6.81869 13.9287 7.0158 14.0355 7.20396 13.9785L17.3017 10.9156C17.4889 10.8587 17.5946 10.6609 17.5378 10.4738Z" fill="white"/>
</g>
</g>
<g id="Group_9">
<g id="Group_10">
<path id="Vector_5" d="M18.1276 12.4174C18.0704 12.2304 17.8725 12.1246 17.6855 12.1812L17.6293 12.1983L7.58787 15.2441C7.40084 15.3012 7.29504 15.4987 7.35171 15.6862C7.40871 15.874 7.60756 15.9785 7.79379 15.9223C7.79932 15.9207 17.8711 12.8657 17.8915 12.8595C18.0785 12.8023 18.1843 12.6044 18.1276 12.4174Z" fill="white"/>
</g>
</g>
<g id="Group_11">
<g id="Group_12">
<path id="Vector_6" d="M18.7172 14.3609C18.6614 14.1775 18.4677 14.068 18.2756 14.1248L17.6295 14.3208L8.17745 17.188C7.78933 17.3057 7.8752 17.8814 8.28039 17.8814C8.31437 17.8814 8.34887 17.8762 8.38333 17.8658C10.6311 17.184 16.0946 15.5268 18.481 14.803C18.6681 14.7463 18.7739 14.5484 18.7172 14.3609Z" fill="white"/>
</g>
</g>
<g id="Group_13">
<g id="Group_14">
<path id="Vector_7" d="M19.3066 16.3049C19.2499 16.1179 19.052 16.0121 18.865 16.0688L18.3379 16.2289C9.41003 18.9367 8.79812 19.1222 8.76827 19.1313C8.76817 19.1313 8.76812 19.1314 8.76803 19.1314L8.76817 19.1313C8.76784 19.1314 8.76756 19.1315 8.76738 19.1316L8.76752 19.1315C8.76742 19.1315 8.76733 19.1316 8.76733 19.1316C8.37841 19.2492 8.46536 19.8249 8.8698 19.8249C8.94958 19.8249 8.35609 19.9984 19.0705 16.7465C19.258 16.6898 19.3637 16.4919 19.3066 16.3049Z" fill="white"/>
</g>
</g>
<g id="Group_15">
<g id="Group_16">
<path id="Vector_8" d="M8.76807 19.1313H8.76816C8.76872 19.1311 8.7691 19.131 8.7691 19.131C8.76896 19.131 8.76854 19.1312 8.76807 19.1313Z" fill="white"/>
</g>
</g>
</g>
</svg>
