<svg width="25" height="24" viewBox="0 0 25 24" fill="none" xmlns="http://www.w3.org/2000/svg">
<g clip-path="url(#clip0_2149_309)">
<path d="M13.803 11.7647H16.8147C16.8147 9.82381 16.8147 9.05944 16.8147 7.90588H13.803V11.7647Z" fill="white"/>
<path d="M18.2266 7.90588V11.7647H21.9301L21.1033 7.90588H18.2266Z" fill="white"/>
<path d="M13.803 21.7412H15.027C15.0284 21.6302 15.0265 21.1624 15.0265 21.0353C15.0265 18.8297 16.8209 17.0353 19.0265 17.0353C21.2322 17.0353 23.0265 18.8297 23.0265 21.0353C23.0265 21.1624 23.0246 21.6302 23.026 21.7412H24.25V16.8471H22.0383V15.4353H24.25V13.1765H13.803V21.7412Z" fill="white"/>
<path d="M10.6971 12.4236H0.25V21.7412H2.97988C2.98129 21.6306 2.97941 21.1629 2.97941 21.0353C2.97941 18.8297 4.77376 17.0353 6.97941 17.0353C9.18506 17.0353 10.9794 18.8297 10.9794 21.0353C10.9794 21.1633 10.9775 21.6316 10.9789 21.7412H12.3912V15.4353H10.6971V12.4236Z" fill="white"/>
<path d="M12.1906 6.30585H15.6852V1.88232H10.3675C8.32937 1.88232 7.10824 4.13329 8.1666 5.83009C9.03977 7.2428 11.0044 7.4851 12.1906 6.30585Z" fill="white"/>
<path d="M17.0972 0.376465H24.2501V6.30588H17.0972V0.376465Z" fill="white"/>
<path d="M9.986 8.45219C8.3948 8.30311 7.02812 7.19728 6.54976 5.66443L2.73047 11.0117H8.194L9.986 8.45219Z" fill="white"/>
<path d="M19.0265 23.6235C20.4559 23.6235 21.6147 22.4647 21.6147 21.0353C21.6147 19.6058 20.4559 18.447 19.0265 18.447C17.597 18.447 16.4382 19.6058 16.4382 21.0353C16.4382 22.4647 17.597 23.6235 19.0265 23.6235Z" fill="white"/>
<path d="M6.97935 23.6235C8.40879 23.6235 9.56758 22.4647 9.56758 21.0353C9.56758 19.6058 8.40879 18.447 6.97935 18.447C5.54991 18.447 4.39111 19.6058 4.39111 21.0353C4.39111 22.4647 5.54991 23.6235 6.97935 23.6235Z" fill="white"/>
</g>
<defs>
<clipPath id="clip0_2149_309">
<rect width="24" height="24" fill="white" transform="translate(0.25)"/>
</clipPath>
</defs>
</svg>
