<svg width="24" height="24" viewBox="0 0 24 24" fill="none" xmlns="http://www.w3.org/2000/svg">
<path d="M7.20008 4.63999C6.90726 4.34754 6.43289 4.34754 6.14008 4.63999C5.99713 4.77928 5.91651 4.97041 5.91651 5.16999C5.91651 5.36958 5.99713 5.56071 6.14008 5.69999L7.06008 6.62999V7.46999C7.06008 7.88421 7.39586 8.21999 7.81008 8.21999C8.22429 8.21999 8.56008 7.88421 8.56008 7.46999V6.46999C8.56387 6.15378 8.43728 5.84996 8.21008 5.62999L7.20008 4.63999Z" fill="white"/>
<path fill-rule="evenodd" clip-rule="evenodd" d="M20.36 10L21.41 11.07C21.7856 11.4434 21.9978 11.9504 22 12.48V17.88C22 18.9846 21.1046 19.88 20 19.88H19.54C19.5453 19.8034 19.5453 19.7266 19.54 19.65C19.4472 18.0252 18.1025 16.7552 16.475 16.7552C14.8476 16.7552 13.5029 18.0252 13.41 19.65C13.4048 19.7266 13.4048 19.8034 13.41 19.88H9.30004C9.30527 19.8034 9.30527 19.7266 9.30004 19.65C9.2072 18.0252 7.86252 16.7552 6.23504 16.7552C4.60757 16.7552 3.26289 18.0252 3.17004 19.65C3.16482 19.7266 3.16482 19.8034 3.17004 19.88H2.00004V9.10003C1.99395 7.97337 2.61964 6.93828 3.62004 6.42003V6.32003C3.55929 4.00595 5.38597 2.08078 7.70004 2.02003C10.0141 1.95928 11.9393 3.78595 12 6.10003H12.22C13.3246 6.10003 14.22 6.99546 14.22 8.10003V9.43003H19C19.5094 9.43987 19.9959 9.64374 20.36 10ZM5.11004 6.30003C5.11004 7.7912 6.31887 9.00003 7.81004 9.00003C8.52613 9.00003 9.21288 8.71556 9.71923 8.20922C10.2256 7.70287 10.51 7.01611 10.51 6.30003C10.51 4.80886 9.30121 3.60003 7.81004 3.60003C6.31887 3.60003 5.11004 4.80886 5.11004 6.30003ZM20.39 13.6H15.39C14.9797 13.6001 14.6455 13.2703 14.64 12.86C14.64 12.4442 14.9742 12.1055 15.39 12.1H20.39C20.5907 12.1 20.783 12.1804 20.9239 12.3232C21.0649 12.466 21.1427 12.6594 21.14 12.86C21.1455 13.0615 21.0686 13.2564 20.927 13.3999C20.7855 13.5433 20.5915 13.6228 20.39 13.62V13.6Z" fill="white"/>
<path fill-rule="evenodd" clip-rule="evenodd" d="M6.22014 17.43C5.31638 17.4259 4.49955 17.9677 4.15183 18.8019C3.8041 19.6361 3.99425 20.5977 4.63331 21.2368C5.27237 21.8758 6.23396 22.066 7.06815 21.7183C7.90235 21.3705 8.44418 20.5537 8.44014 19.65C8.44014 18.4239 7.44621 17.43 6.22014 17.43ZM6.22014 20.38C5.82088 20.3745 5.5001 20.0492 5.50014 19.65C5.50014 19.2523 5.82249 18.93 6.22014 18.93C6.61778 18.93 6.94014 19.2523 6.94014 19.65C6.94018 20.0492 6.61939 20.3745 6.22014 20.38Z" fill="white"/>
<path fill-rule="evenodd" clip-rule="evenodd" d="M16.4401 17.4299C15.5373 17.4299 14.7235 17.9744 14.3789 18.8089C14.0344 19.6434 14.227 20.6033 14.8668 21.2403C15.5067 21.8773 16.4675 22.0656 17.3005 21.7173C18.1334 21.369 18.6742 20.5528 18.6701 19.6499C18.6646 18.4222 17.6678 17.4299 16.4401 17.4299ZM16.4401 20.3799C16.0409 20.3745 15.7201 20.0492 15.7201 19.6499C15.7634 19.2823 16.075 19.0052 16.4451 19.0052C16.8153 19.0052 17.1269 19.2823 17.1701 19.6499C17.1701 19.8435 17.0932 20.0292 16.9563 20.1661C16.8194 20.303 16.6337 20.3799 16.4401 20.3799Z" fill="white"/>
</svg>
