<svg width="25" height="24" viewBox="0 0 25 24" fill="none" xmlns="http://www.w3.org/2000/svg">
<g clip-path="url(#clip0_2149_327)">
<path d="M21.6904 11.269H17.1699V15.7676H24.716L21.6904 11.269Z" fill="white"/>
<path d="M8.73478 8.47428C9.11447 8.47428 9.42338 8.16537 9.42338 7.78564C9.42338 7.40595 9.11447 7.09705 8.73478 7.09705C8.35505 7.09705 8.04614 7.40595 8.04614 7.78564C8.04614 8.16533 8.35505 8.47428 8.73478 8.47428Z" fill="white"/>
<path d="M6.13523 11.2256H11.2789V15.7676H14.2705V7.72186L8.73464 3.48169L3.18384 7.7333V15.7677H6.13523V11.2256ZM8.73464 5.694C9.88795 5.694 10.8262 6.6323 10.8262 7.78556C10.8262 8.93888 9.8879 9.87717 8.73464 9.87717C7.58132 9.87717 6.64303 8.93892 6.64303 7.78556C6.64303 6.6323 7.58132 5.694 8.73464 5.694Z" fill="white"/>
<path d="M7.53833 12.6285H9.87603V15.7676H7.53833V12.6285Z" fill="white"/>
<path d="M1.50803 21.8969C1.54885 20.0649 3.05073 18.5868 4.89235 18.5868C5.65243 18.5868 6.35471 18.8386 6.92045 19.263C7.48618 18.8386 8.18846 18.5868 8.94854 18.5868C10.7902 18.5868 12.292 20.0648 12.3329 21.8969H16.7109C16.7518 20.0649 18.2536 18.5868 20.0953 18.5868C21.9369 18.5868 23.4388 20.0648 23.4796 21.8969H24.7496L24.7374 17.1707H0.750244V21.8969H1.50803Z" fill="white"/>
<path d="M22.1222 21.973C22.1222 20.8554 21.2129 19.9462 20.0952 19.9462C18.9776 19.9462 18.0684 20.8554 18.0684 21.973C18.0684 23.0907 18.9776 24 20.0952 24C21.2129 24 22.1222 23.0907 22.1222 21.973Z" fill="white"/>
<path d="M10.9754 21.973C10.9754 20.8554 10.0661 19.9462 8.94851 19.9462C7.83091 19.9462 6.92163 20.8554 6.92163 21.973C6.92163 23.0907 7.83087 24 8.94851 24C10.0661 24 10.9754 23.0907 10.9754 21.973Z" fill="white"/>
<path d="M6.91923 21.973C6.91923 20.8554 6.00995 19.9462 4.89235 19.9462C3.77471 19.9462 2.86548 20.8554 2.86548 21.973C2.86548 23.0907 3.77471 24 4.89235 24C6.00999 24 6.91923 23.0907 6.91923 21.973Z" fill="white"/>
<path d="M8.7346 0L0.882568 6.01425L1.73569 7.12805L8.7346 1.76723L15.7335 7.12805L16.5866 6.01425L13.5421 3.68236V0H12.1392V2.60775L8.7346 0Z" fill="white"/>
</g>
<defs>
<clipPath id="clip0_2149_327">
<rect width="24" height="24" fill="white" transform="translate(0.75)"/>
</clipPath>
</defs>
</svg>
