<svg width="24" height="25" viewBox="0 0 24 25" fill="none" xmlns="http://www.w3.org/2000/svg">
<g id="facebook" clip-path="url(#clip0_265_14)">
<path id="Vector" d="M24 12.5C24 5.87188 18.6281 0.5 12 0.5C5.37188 0.5 0 5.87188 0 12.5C0 19.1281 5.37188 24.5 12 24.5C12.0703 24.5 12.1406 24.5 12.2109 24.4953V15.1578H9.63281V12.1531H12.2109V9.94062C12.2109 7.37656 13.7766 5.97969 16.0641 5.97969C17.1609 5.97969 18.1031 6.05938 18.375 6.09688V8.77813H16.8C15.5578 8.77813 15.3141 9.36875 15.3141 10.2359V12.1484H18.2906L17.9016 15.1531H15.3141V24.0359C20.3297 22.5969 24 17.9797 24 12.5Z" fill="white"/>
</g>
<defs>
<clipPath id="clip0_265_14">
<rect width="24" height="24" fill="white" transform="translate(0 0.5)"/>
</clipPath>
</defs>
</svg>
