<svg width="25" height="24" viewBox="0 0 25 24" fill="none" xmlns="http://www.w3.org/2000/svg">
<g id="factory-machine 1" clip-path="url(#clip0_265_314)">
<path id="Vector" d="M4.20673 14.0647C4.94775 14.0647 5.55072 13.4615 5.55072 12.7202C5.55072 11.9788 4.94794 11.3756 4.20673 11.3756C3.46552 11.3756 2.86255 11.9788 2.86255 12.7202C2.86255 13.4615 3.4657 14.0647 4.20673 14.0647ZM4.20673 12.0842C4.55719 12.0842 4.84229 12.3695 4.84229 12.7202C4.84229 13.071 4.55719 13.3563 4.20673 13.3563C3.85626 13.3563 3.57117 13.071 3.57117 12.7202C3.57117 12.3695 3.85626 12.0842 4.20673 12.0842Z" fill="white"/>
<path id="Vector_2" d="M21.4354 16.8854H20.554V9.44879C20.554 8.99469 20.1846 8.62537 19.7307 8.62537H11.7642C11.3101 8.62537 10.9407 8.99487 10.9407 9.44879V12.7029C10.9407 12.8985 11.0993 13.0571 11.295 13.0571C11.4908 13.0571 11.6494 12.8985 11.6494 12.7029V9.44879C11.6494 9.38654 11.7019 9.3338 11.7642 9.3338H13.9369V10.2942C13.9369 10.6875 14.2568 11.0074 14.6499 11.0074H16.8435C17.2368 11.0074 17.5565 10.6875 17.5565 10.2942V9.3338H19.7307C19.793 9.3338 19.8455 9.38654 19.8455 9.44879V16.8854H11.6495L11.6519 14.3276C11.6521 14.1319 11.4937 13.9731 11.298 13.973C11.2978 13.973 11.2978 13.973 11.2976 13.973C11.1022 13.973 10.9437 14.1313 10.9435 14.3269L10.9411 16.8854H6.01978V15.0005C6.69031 14.4659 7.12115 13.6426 7.12115 12.7202C7.12115 11.4979 6.3653 10.4498 5.29688 10.017V4.216C5.53162 4.03876 5.72168 3.80585 5.84802 3.53705L7.13397 3.53815L9.11041 3.53705C9.1745 3.67566 9.2536 3.81006 9.34882 3.93732L10.4821 5.42084C10.5518 5.51202 10.6571 5.56 10.7639 5.56C10.8376 5.56 10.912 5.53711 10.9755 5.48969L11.1429 5.36462L11.5519 5.91302C11.4088 6.04559 11.3156 6.22192 11.287 6.41858C11.2538 6.64673 11.3113 6.87341 11.4479 7.05615C11.6091 7.27295 11.8674 7.4024 12.1392 7.4024C12.3256 7.4024 12.5028 7.34363 12.6524 7.2323L13.132 6.87396L13.3923 7.22296C13.52 7.3938 13.7164 7.48407 13.9158 7.48407C14.0295 7.48407 14.144 7.45422 14.2474 7.39362L14.694 7.96326C14.764 8.05243 14.868 8.09894 14.9731 8.09894C15.0496 8.09894 15.1265 8.0744 15.1915 8.0235C15.3453 7.90283 15.3723 7.67999 15.2516 7.52618L14.8136 6.96753C14.916 6.8681 14.9832 6.73883 15.0042 6.59509C15.0297 6.42206 14.9863 6.24994 14.8821 6.1106L14.6215 5.76123L15.1556 5.36224C15.5327 5.0777 15.6105 4.53809 15.3289 4.15961C15.1681 3.94336 14.9101 3.81427 14.6389 3.81427C14.4833 3.81427 14.3342 3.85583 14.2018 3.93402L13.793 3.38599L13.9611 3.26056C14.1178 3.14337 14.15 2.92145 14.033 2.76471L12.9155 1.26782C12.4979 0.708801 11.8293 0.375 11.127 0.375C10.6436 0.375 10.1841 0.527527 9.79816 0.815918C9.59253 0.969543 9.42169 1.15247 9.28564 1.35425H5.3421C5.03101 1.10339 4.63623 0.952698 4.20667 0.952698C3.20618 0.952698 2.39227 1.76697 2.39227 2.76782C2.39227 3.3587 2.67627 3.88422 3.11499 4.21564V6.54822C3.11499 6.74396 3.27356 6.90253 3.4693 6.90253C3.66504 6.90253 3.82361 6.74396 3.82361 6.54822V4.54065C3.9472 4.5672 4.0752 4.58167 4.20667 4.58167C4.33777 4.58167 4.46539 4.56738 4.58862 4.54083V9.8302C4.46356 9.81372 4.33612 9.80438 4.20667 9.80438C4.07684 9.80438 3.94904 9.81372 3.82361 9.83038V8.09546C3.82361 7.8999 3.66504 7.74133 3.4693 7.74133C3.27356 7.74133 3.11499 7.8999 3.11499 8.09546V10.0173C2.04749 10.4504 1.29199 11.4983 1.29199 12.72C1.29199 13.6419 1.72247 14.4646 2.39227 14.9995V17.3333C1.40314 17.9116 0.75 18.9952 0.75 20.2639C0.75 22.0915 2.23627 23.5783 4.06311 23.5783H21.4354C23.263 23.5783 24.75 22.0915 24.75 20.2639V20.2013C24.75 18.373 23.263 16.8854 21.4354 16.8854ZM16.8481 10.2942C16.8481 10.2962 16.845 10.2986 16.8442 10.299C16.8442 10.299 16.8441 10.299 16.8435 10.299H14.6501C14.6486 10.2986 14.6459 10.2958 14.6453 10.2942V9.3338H16.8481V10.2942ZM13.2255 3.81006L13.6307 4.35352L13.0063 4.82007L12.1165 5.48474L11.7111 4.94128L13.2255 3.81006ZM13.9266 6.75439L13.6996 6.45007L14.0539 6.1853L14.2806 6.48926L13.9266 6.75439ZM14.3384 4.70929C14.3388 4.70911 14.339 4.70892 14.3392 4.70874L14.5479 4.55292C14.5812 4.52802 14.6158 4.52271 14.6391 4.52271C14.6622 4.52271 14.7204 4.52856 14.7603 4.5824C14.8105 4.6496 14.7964 4.74573 14.7303 4.79572L13.9347 5.39008C13.9274 5.39465 13.9202 5.39923 13.9133 5.40436C13.9061 5.40967 13.8997 5.41534 13.8931 5.42102L13.0159 6.07654C13.0074 6.08167 12.9992 6.08698 12.9911 6.09283C12.9831 6.09906 12.9754 6.10565 12.9679 6.11224L12.2289 6.66431C12.1961 6.68866 12.1619 6.69379 12.139 6.69379C12.1157 6.69379 12.0571 6.68793 12.0159 6.63245C11.9837 6.5896 11.9846 6.54382 11.9881 6.52039C11.9914 6.49713 12.0035 6.45337 12.0465 6.42133L13.3973 5.41223L14.3384 4.70929ZM10.2224 1.38336C10.4848 1.18707 10.7977 1.08344 11.127 1.08344C11.6071 1.08344 12.0634 1.31085 12.3479 1.69171L13.2534 2.9046L10.8323 4.71222L9.91406 3.51031C9.81537 3.37793 9.74176 3.23456 9.69177 3.08606C9.68958 3.078 9.68683 3.07013 9.68408 3.06244C9.56049 2.67316 9.59985 2.24945 9.78845 1.89111C9.7934 1.88306 9.79797 1.87463 9.80219 1.86603C9.90326 1.68256 10.0439 1.51685 10.2224 1.38336ZM8.97125 2.06268C8.90936 2.31226 8.89069 2.57153 8.91669 2.82861L7.13397 2.82971L6.01831 2.82861C6.01886 2.80847 6.01978 2.78815 6.01978 2.76782C6.01978 2.51788 5.96906 2.27966 5.87732 2.06268H8.97125ZM4.20667 3.87323C3.59674 3.87323 3.10071 3.37738 3.10071 2.76782C3.10071 2.15771 3.59674 1.66132 4.20667 1.66132C4.81567 1.66132 5.31134 2.15771 5.31134 2.76782C5.31134 3.37738 4.81567 3.87323 4.20667 3.87323ZM2.00061 12.7202C2.00061 11.5031 2.99011 10.5128 4.20667 10.5128C5.42322 10.5128 6.4129 11.5031 6.4129 12.7202C6.4129 13.9373 5.42322 14.9273 4.20667 14.9273C2.9903 14.9273 2.00061 13.9373 2.00061 12.7202ZM5.31134 15.4178V16.8854H4.06311C3.72693 16.8854 3.4043 16.9347 3.10071 17.0255V15.4173C3.44202 15.5577 3.81537 15.6359 4.20667 15.6359C4.5976 15.6359 4.9704 15.5579 5.31134 15.4178ZM24.0416 20.2639C24.0416 21.7007 22.8724 22.8699 21.4354 22.8699H4.06311C2.62683 22.8699 1.45844 21.7007 1.45844 20.2639C1.45844 19.2129 2.02277 18.3224 2.86414 17.8846C2.89307 17.8744 2.92072 17.8607 2.9458 17.8436C3.28271 17.6834 3.66083 17.5939 4.06311 17.5939H21.4354C22.8724 17.5939 24.0416 18.7635 24.0416 20.2013V20.2639Z" fill="white"/>
<path id="Vector_3" d="M21.4048 18.111H4.09491C2.92596 18.111 1.9751 19.0624 1.9751 20.2319C1.9751 21.4014 2.92596 22.3528 4.09491 22.3528H21.4048C22.5737 22.3528 23.5248 21.4014 23.5248 20.2319C23.5248 19.0624 22.5737 18.111 21.4048 18.111ZM21.4048 21.6442H4.09491C3.31671 21.6442 2.68335 21.0106 2.68335 20.2319C2.68335 19.4531 3.31671 18.8196 4.09491 18.8196H21.4048C22.1832 18.8196 22.8163 19.4531 22.8163 20.2319C22.8165 21.0106 22.1832 21.6442 21.4048 21.6442Z" fill="white"/>
<path id="Vector_4" d="M8.99365 19.1759C8.40643 19.1759 7.92871 19.6544 7.92871 20.2425C7.92871 20.8299 8.40643 21.308 8.99365 21.308C9.58179 21.308 10.0601 20.8299 10.0601 20.2425C10.0601 19.6544 9.58179 19.1759 8.99365 19.1759ZM8.99365 20.5994C8.79718 20.5994 8.63715 20.4393 8.63715 20.2425C8.63715 20.0449 8.79718 19.8843 8.99365 19.8843C9.19104 19.8843 9.35162 20.0449 9.35162 20.2425C9.35162 20.4393 9.19104 20.5994 8.99365 20.5994Z" fill="white"/>
<path id="Vector_5" d="M12.7156 19.1665C12.1277 19.1665 11.6494 19.6444 11.6494 20.2318C11.6494 20.8199 12.1277 21.2986 12.7156 21.2986C13.3029 21.2986 13.7808 20.8199 13.7808 20.2318C13.7808 19.6444 13.3029 19.1665 12.7156 19.1665ZM12.7156 20.5901C12.5184 20.5901 12.3578 20.4294 12.3578 20.2318C12.3578 20.035 12.5184 19.8749 12.7156 19.8749C12.9123 19.8749 13.0723 20.035 13.0723 20.2318C13.0723 20.4294 12.9123 20.5901 12.7156 20.5901Z" fill="white"/>
<path id="Vector_6" d="M16.4448 19.1665C15.8578 19.1665 15.3799 19.6444 15.3799 20.2318C15.3799 20.8199 15.8576 21.2986 16.4448 21.2986C17.033 21.2986 17.5112 20.8199 17.5112 20.2318C17.5112 19.6444 17.033 19.1665 16.4448 19.1665ZM16.4448 20.5901C16.2484 20.5901 16.0883 20.4294 16.0883 20.2318C16.0883 20.035 16.2484 19.8749 16.4448 19.8749C16.6422 19.8749 16.803 20.035 16.803 20.2318C16.803 20.4294 16.6422 20.5901 16.4448 20.5901Z" fill="white"/>
<path id="Vector_7" d="M20.1667 19.1558C19.5786 19.1558 19.1003 19.6344 19.1003 20.2225C19.1003 20.8101 19.5786 21.288 20.1667 21.288C20.754 21.288 21.2317 20.8101 21.2317 20.2225C21.2317 19.6344 20.754 19.1558 20.1667 19.1558ZM20.1667 20.5794C19.9694 20.5794 19.8088 20.4194 19.8088 20.2225C19.8088 20.025 19.9694 19.8644 20.1667 19.8644C20.3632 19.8644 20.5233 20.025 20.5233 20.2225C20.5233 20.4194 20.3632 20.5794 20.1667 20.5794Z" fill="white"/>
<path id="Vector_8" d="M5.27362 19.1863C4.6864 19.1863 4.2085 19.6644 4.2085 20.2518C4.2085 20.8392 4.68622 21.3173 5.27362 21.3173C5.86084 21.3173 6.33875 20.8392 6.33875 20.2518C6.33875 19.6644 5.86084 19.1863 5.27362 19.1863ZM5.27362 20.6086C5.07697 20.6086 4.91693 20.4486 4.91693 20.2518C4.91693 20.0549 5.07697 19.8949 5.27362 19.8949C5.47009 19.8949 5.63013 20.0549 5.63013 20.2518C5.63013 20.4486 5.47009 20.6086 5.27362 20.6086Z" fill="white"/>
</g>
<defs>
<clipPath id="clip0_265_314">
<rect width="24" height="24" fill="white" transform="translate(0.75)"/>
</clipPath>
</defs>
</svg>
