<svg width="25" height="24" viewBox="0 0 25 24" fill="none" xmlns="http://www.w3.org/2000/svg">
<g clip-path="url(#clip0_2149_381)">
<path fill-rule="evenodd" clip-rule="evenodd" d="M11.6337 15.4465C10.7747 15.4926 9.92687 15.6177 9.12814 15.8219C8.54903 14.6978 8.21082 13.4464 8.15411 12.1412H12.0101V14.4142C11.7851 14.5443 11.6337 14.7877 11.6337 15.0664V15.4465ZM12.7631 14.3134V12.1412H16.6217C16.5893 12.8874 16.4647 13.6161 16.2556 14.3134H12.7631ZM17.0391 14.3134C17.2313 13.6129 17.3455 12.885 17.3753 12.1412H20.2601C20.2221 12.9496 20.0622 13.7262 19.7984 14.453C19.6301 14.3639 19.4385 14.3134 19.2355 14.3134H17.0391ZM11.6337 18.8053C10.7836 18.1585 10.0688 17.374 9.51199 16.4928C10.1924 16.3299 10.9085 16.2275 11.6337 16.1857V18.8053ZM9.39741 4.46918C10.0384 4.20617 10.7216 4.02518 11.4341 3.93935C10.3556 4.70669 9.44183 5.69139 8.75745 6.82866C8.52192 6.75299 8.29237 6.66937 8.07007 6.57779L9.39741 4.46918ZM7.66517 7.22104C7.90004 7.32062 8.14272 7.41182 8.39185 7.49455C7.80305 8.67591 7.45129 9.99478 7.39938 11.3882H4.51308C4.57087 10.1596 4.91011 9.00452 5.46781 7.98589C5.54969 8.01153 5.63571 8.02584 5.72357 8.02753L6.62282 8.04509C6.94385 8.05135 7.2447 7.88904 7.41576 7.61732L7.66517 7.22104ZM13.3417 3.93968C15.0548 4.14669 16.5989 4.90358 17.7921 6.02852C17.2625 6.35483 16.6623 6.62151 16.0173 6.82857C15.3328 5.69149 14.4192 4.70692 13.3417 3.93968ZM18.3216 6.57807C19.4571 7.87624 20.1736 9.55003 20.2601 11.3882H17.3765C17.3245 9.99478 16.9722 8.67586 16.3831 7.4945C17.0701 7.26636 17.7079 6.97436 18.2687 6.6185C18.2879 6.6064 18.3055 6.59285 18.3216 6.57807ZM11.429 19.5895C9.71825 19.3822 8.17614 18.6265 6.98381 17.5035C7.51289 17.1773 8.11256 16.9106 8.75708 16.7036C9.42912 17.8247 10.3325 18.8097 11.429 19.5895ZM6.45407 16.9542C5.31717 15.6557 4.59962 13.9808 4.51308 12.1412H7.40051C7.45567 13.5189 7.79995 14.842 8.3928 16.0372C7.7056 16.2655 7.06776 16.5576 6.50701 16.9137C6.48785 16.9258 6.47021 16.9394 6.45407 16.9542ZM9.12705 7.70993C10.0426 7.9441 11.0227 8.0744 12.0101 8.1008V11.3882H8.15289C8.20635 10.0678 8.55214 8.82062 9.12705 7.70993ZM12.0101 4.45558V7.36269C11.157 7.33817 10.3102 7.2304 9.51233 7.03935C10.1603 6.0177 11.0122 5.13713 12.0101 4.45558ZM15.2624 7.03925C14.4639 7.2304 13.6166 7.33822 12.7631 7.36269V4.45398C13.7611 5.13577 14.6137 6.01685 15.2624 7.03925ZM16.623 11.3882H12.7631V8.1008C13.751 8.07445 14.7317 7.9441 15.6479 7.70979C16.2231 8.82052 16.5695 10.0677 16.623 11.3882ZM2.59698 4.28612L0.819336 2.77944C1.36545 2.39026 2.23374 2.49492 2.63199 2.7897L3.70484 3.58368L2.76174 4.18673L2.76136 4.18697C2.70324 4.21591 2.64837 4.24913 2.59698 4.28612ZM5.91336 2.17144C4.76084 1.41003 4.18461 1.02932 4.18461 1.02932C4.66795 0.656852 4.9096 0.470593 4.9096 0.470593C5.86225 0.812569 6.64442 1.09332 7.25604 1.31285L5.91336 2.17144ZM6.5096 4.39153C5.42959 4.84928 4.38414 5.29083 3.46748 5.6721C3.24094 5.76636 2.97844 5.65807 2.88418 5.43153C2.79002 5.20495 2.89821 4.94245 3.12484 4.84824L8.90409 1.15271C11.6885 -0.62776 13.1819 1.58123 11.9517 2.0929C11.1465 2.42777 10.2421 2.80918 9.30206 3.2072L6.77854 7.21619C6.74814 7.26452 6.69463 7.29342 6.6375 7.29229L5.73825 7.27473C5.68616 7.27375 5.63769 7.24782 5.60785 7.20509C5.57802 7.16236 5.57049 7.10791 5.58748 7.05869L6.5096 4.39153ZM23.6807 20.5775V21.8064C23.6807 21.9946 23.5273 22.1481 23.3391 22.1481H23.2821C23.0791 21.4583 22.4413 20.9549 21.6858 20.9549C20.9304 20.9549 20.2926 21.4583 20.0895 22.1481H20.0674V16.5278H22.2075C22.4474 16.5278 22.6521 16.6558 22.7389 16.8601L23.6422 18.9869C23.6689 19.0499 23.6807 19.1076 23.6807 19.1751V19.8245H22.9145C22.7068 19.8245 22.5381 19.9932 22.5381 20.201C22.5381 20.4088 22.7068 20.5775 22.9145 20.5775H23.6807ZM22.4559 18.7721C22.4795 18.7721 22.5014 18.7603 22.5144 18.7407C22.5274 18.7211 22.5297 18.6963 22.5205 18.6746L22.0231 17.5034C22.0121 17.4776 21.9867 17.4607 21.9585 17.4607H20.7885C20.7699 17.4607 20.752 17.4681 20.7389 17.4813C20.7257 17.4944 20.7183 17.5122 20.7183 17.5308V18.702C20.7183 18.7206 20.7257 18.7384 20.7389 18.7516C20.752 18.7648 20.7699 18.7721 20.7885 18.7721H22.4559ZM19.3144 22.1481H16.7307C16.5277 21.4583 15.8898 20.9549 15.1344 20.9549C14.3789 20.9549 13.7411 21.4583 13.5381 22.1481H12.842C12.5912 22.1481 12.3866 21.9434 12.3866 21.6926V15.3889C12.3866 15.2108 12.5311 15.0664 12.7092 15.0664H19.2355C19.2624 15.0664 19.2888 15.0687 19.3144 15.0732V22.1481ZM21.6858 21.7078C22.1889 21.7078 22.5967 22.1156 22.5967 22.6186C22.5967 23.1217 22.1889 23.5294 21.6858 23.5294C21.1828 23.5294 20.775 23.1217 20.775 22.6186C20.775 22.1156 21.1828 21.7078 21.6858 21.7078ZM21.6858 22.3083C21.5143 22.3083 21.3755 22.4471 21.3755 22.6186C21.3755 22.7901 21.5143 22.9289 21.6858 22.9289C21.8573 22.9289 21.9961 22.7901 21.9961 22.6186C21.9961 22.4471 21.8573 22.3083 21.6858 22.3083ZM15.1344 21.7078C15.6374 21.7078 16.0452 22.1156 16.0452 22.6186C16.0452 23.1217 15.6374 23.5294 15.1344 23.5294C14.6313 23.5294 14.2236 23.1217 14.2236 22.6186C14.2236 22.1156 14.6313 21.7078 15.1344 21.7078ZM15.1344 22.3083C14.9629 22.3083 14.8241 22.4471 14.8241 22.6186C14.8241 22.7901 14.9629 22.9289 15.1344 22.9289C15.3059 22.9289 15.4447 22.7901 15.4447 22.6186C15.4447 22.4471 15.3059 22.3083 15.1344 22.3083Z" fill="white"/>
</g>
<defs>
<clipPath id="clip0_2149_381">
<rect width="24" height="24" fill="white" transform="translate(0.25)"/>
</clipPath>
</defs>
</svg>
