<svg width="24" height="24" viewBox="0 0 24 24" fill="none" xmlns="http://www.w3.org/2000/svg">
<g id="fast-delivery 1" clip-path="url(#clip0_343_639)">
<g id="Group">
<g id="Group_2">
<path id="Vector" d="M24 12.9818C24 12.6182 23.8909 12.2909 23.7091 12L21.2727 7.96364C20.9091 7.38182 20.2909 7.05455 19.6364 7.05455H16.0364V4.58182C16.0364 4.36364 15.8909 4.21818 15.6727 4.21818H14.3273C13.3818 1.74545 10.9455 0 8.07273 0C5.2 0 2.8 1.74545 1.81818 4.18182H0.363636C0.145455 4.18182 0 4.32727 0 4.54545V20.5818C0 20.8 0.145455 20.9455 0.363636 20.9455H4.18182V21.2364C4.18182 22.7636 5.41818 24.0364 6.98182 24.0364C8.50909 24.0364 9.78182 22.8 9.78182 21.2364C9.78182 21.1273 9.78182 21.0545 9.78182 20.9455H15.9636V21.2364C15.9636 22.7636 17.2 24.0364 18.7636 24.0364C20.2909 24.0364 21.5636 22.8 21.5636 21.2364C21.5636 21.1273 21.5636 21.0545 21.5636 20.9455H23.6364C23.8545 20.9455 24 20.8 24 20.5818V16.6909V12.9818ZM19.6364 7.78182C20.0364 7.78182 20.4364 8 20.6545 8.36364L23.0909 12.3636C23.2 12.5455 23.2727 12.7636 23.2727 12.9818V16.3273H16.0364V7.78182H19.6364ZM0.727273 14.7636H15.3091V16.3273H0.727273V14.7636ZM8.07273 0.727273C11.3818 0.727273 14.0727 3.34545 14.0727 6.54545C14.0727 9.74545 11.3818 12.3636 8.07273 12.3636C4.76364 12.3636 2.07273 9.74545 2.07273 6.54545C2.07273 3.34545 4.76364 0.727273 8.07273 0.727273ZM1.56364 4.90909C1.41818 5.41818 1.34545 5.96364 1.34545 6.54545C1.34545 10.1455 4.36364 13.0909 8.07273 13.0909C11.7818 13.0909 14.8 10.1455 14.8 6.54545C14.8 5.96364 14.7273 5.41818 14.5818 4.90909H15.3091V14H0.727273V4.90909H1.56364ZM6.98182 23.2727C5.85455 23.2727 4.90909 22.3636 4.90909 21.2C4.90909 20.0364 5.81818 19.1273 6.98182 19.1273C8.10909 19.1273 9.05455 20.0364 9.05455 21.2C9.05455 22.3636 8.10909 23.2727 6.98182 23.2727ZM18.7273 23.2727C17.6 23.2727 16.6545 22.3636 16.6545 21.2C16.6545 20.0364 17.5636 19.1273 18.7273 19.1273C19.8545 19.1273 20.8 20.0364 20.8 21.2C20.8 22.3636 19.8545 23.2727 18.7273 23.2727ZM23.2727 20.2182H21.3455C20.9455 19.1636 19.9273 18.4364 18.7273 18.4364C17.5273 18.4364 16.5091 19.1636 16.1091 20.2182H9.56364C9.16364 19.1636 8.14546 18.4364 6.94546 18.4364C5.74545 18.4364 4.72727 19.1636 4.32727 20.2182H0.727273V17.0545H23.2727V20.2182Z" fill="white"/>
</g>
<g id="Group_3">
<path id="Vector_2" d="M17.7455 13.0182H21.3818C21.6 13.0182 21.7455 12.8727 21.7455 12.6546C21.7455 12.5455 21.7091 12.4727 21.6364 12.4L19.8545 9.52729C19.6727 9.23638 19.3455 9.05457 19.0182 9.05457H17.7091C17.4909 9.05457 17.3455 9.20002 17.3455 9.4182V12.6182C17.3818 12.8364 17.5273 13.0182 17.7455 13.0182ZM18.1091 9.78184H19.0546C19.1273 9.78184 19.2364 9.8182 19.2727 9.89093L20.7273 12.2546H18.1091V9.78184Z" fill="white"/>
</g>
<g id="Group_4">
<path id="Vector_3" d="M8.0728 7.74546C8.40008 7.74546 8.69098 7.60001 8.90917 7.38182L11.0546 8.47273C11.2364 8.54546 11.4546 8.5091 11.5273 8.32728C11.6364 8.14546 11.5637 7.92728 11.3819 7.85455L9.23644 6.76364C9.23644 6.69092 9.2728 6.65455 9.2728 6.58182C9.2728 6.03637 8.90917 5.60001 8.43644 5.45455V3.38182C8.43644 3.16364 8.29098 3.01819 8.0728 3.01819C7.85462 3.01819 7.70917 3.16364 7.70917 3.38182V5.41819C7.23644 5.56364 6.8728 6.03637 6.8728 6.54546C6.8728 7.20001 7.41826 7.74546 8.0728 7.74546ZM8.0728 6.07273C8.32735 6.07273 8.54553 6.29092 8.54553 6.54546C8.54553 6.80001 8.32735 7.01819 8.0728 7.01819C7.81826 7.01819 7.60008 6.80001 7.60008 6.54546C7.60008 6.29092 7.81826 6.07273 8.0728 6.07273Z" fill="white"/>
</g>
<g id="Group_5">
<path id="Vector_4" d="M8.07262 2.43635C8.2908 2.43635 8.43626 2.29089 8.43626 2.07271V1.49089C8.43626 1.27271 8.2908 1.12726 8.07262 1.12726C7.85444 1.12726 7.70898 1.27271 7.70898 1.49089V2.07271C7.70898 2.25453 7.8908 2.43635 8.07262 2.43635Z" fill="white"/>
</g>
<g id="Group_6">
<path id="Vector_5" d="M8.07262 10.6545C7.85444 10.6545 7.70898 10.8 7.70898 11.0182V11.6C7.70898 11.8182 7.85444 11.9636 8.07262 11.9636C8.2908 11.9636 8.43626 11.8182 8.43626 11.6V11.0182C8.43626 10.8364 8.2908 10.6545 8.07262 10.6545Z" fill="white"/>
</g>
<g id="Group_7">
<path id="Vector_6" d="M12.5819 6.9091H13.1637C13.3819 6.9091 13.5274 6.76364 13.5274 6.54546C13.5274 6.32728 13.3819 6.18182 13.1637 6.18182H12.5819C12.3637 6.18182 12.2183 6.32728 12.2183 6.54546C12.2183 6.76364 12.3637 6.9091 12.5819 6.9091Z" fill="white"/>
</g>
<g id="Group_8">
<path id="Vector_7" d="M3.01818 6.9091H3.6C3.81818 6.9091 3.96363 6.76364 3.96363 6.54546C3.96363 6.32728 3.81818 6.18182 3.6 6.18182H3.01818C2.8 6.18182 2.65454 6.32728 2.65454 6.54546C2.65454 6.76364 2.8 6.9091 3.01818 6.9091Z" fill="white"/>
</g>
<g id="Group_9">
<path id="Vector_8" d="M11.491 3.63635L11.891 3.23635C12.0364 3.09089 12.0364 2.87271 11.891 2.72725C11.7455 2.5818 11.5273 2.5818 11.3819 2.72725L10.9819 3.12726C10.8364 3.27271 10.8364 3.49089 10.9819 3.63635C11.1273 3.7818 11.3819 3.7818 11.491 3.63635Z" fill="white"/>
</g>
<g id="Group_10">
<path id="Vector_9" d="M4.76369 10.4L5.16369 10C5.30914 9.85456 5.30914 9.63638 5.16369 9.49093C5.01824 9.34547 4.80005 9.34547 4.6546 9.49093L4.2546 9.89093C4.10914 10.0364 4.10914 10.2546 4.2546 10.4C4.40005 10.5091 4.61824 10.5091 4.76369 10.4Z" fill="white"/>
</g>
<g id="Group_11">
<path id="Vector_10" d="M11.491 9.45455C11.3455 9.3091 11.1273 9.3091 10.9819 9.45455C10.8364 9.6 10.8364 9.81819 10.9819 9.96364L11.3819 10.3636C11.5273 10.5091 11.7455 10.5091 11.891 10.3636C12.0364 10.2182 12.0364 10 11.891 9.85455L11.491 9.45455Z" fill="white"/>
</g>
<g id="Group_12">
<path id="Vector_11" d="M4.6546 3.63635C4.80005 3.7818 5.01824 3.7818 5.16369 3.63635C5.30914 3.49089 5.30914 3.27271 5.16369 3.12726L4.76369 2.72725C4.61824 2.5818 4.40005 2.5818 4.2546 2.72725C4.10914 2.87271 4.10914 3.09089 4.2546 3.23635L4.6546 3.63635Z" fill="white"/>
</g>
</g>
</g>
<defs>
<clipPath id="clip0_343_639">
<rect width="24" height="24" fill="white"/>
</clipPath>
</defs>
</svg>
