<svg width="25" height="24" viewBox="0 0 25 24" fill="none" xmlns="http://www.w3.org/2000/svg">
<g clip-path="url(#clip0_2149_346)">
<path d="M18.1009 11.5773C18.136 11.5835 18.1711 11.5865 18.2063 11.5865C18.3323 11.5865 18.4565 11.5475 18.5607 11.4735L19.5084 10.8002C19.5097 10.8067 19.511 10.8133 19.5123 10.8198L20.0884 10.0222C20.2362 9.81771 20.4752 9.69554 20.7276 9.69554C20.8939 9.69554 21.0533 9.74718 21.1885 9.8448C21.5407 10.0992 21.6203 10.5928 21.3659 10.945L19.8896 12.9887C19.9094 13.1703 19.9245 13.3525 19.9337 13.5344C19.9527 13.9121 19.9464 14.2874 19.8983 14.6462C19.8925 14.7438 19.89 14.8329 19.8905 14.9146L17.4786 17.1323C17.3299 17.269 17.2283 17.4494 17.1885 17.6475L16.3725 21.7021C16.2683 22.2199 16.6035 22.724 17.1213 22.8283C17.185 22.8411 17.2484 22.8473 17.311 22.8473C17.757 22.8473 18.156 22.5335 18.2473 22.0795L19.002 18.3297L22.1288 15.4545C22.1842 15.4035 22.2314 15.3471 22.272 15.2876C22.4337 15.0905 22.5612 14.8201 22.6334 14.4486C22.7083 13.8061 22.7386 13.2631 22.7195 12.7526C22.6881 11.9127 22.5226 11.1609 22.1988 10.2011C21.8306 9.13004 20.9492 8.7593 20.3017 8.871C20.1804 8.87184 20.0582 8.90818 19.9519 8.98369L18.06 10.3276L16.6038 10.0732L16.5113 11.2996L18.1009 11.5773Z" fill="white"/>
<path d="M16.9996 1.76274L8.90103 1.15271L8.4541 7.08631L16.5527 7.69634L16.9996 1.76274ZM9.38093 6.38914L9.02496 6.36236L9.35698 1.95415L9.71295 1.98092L9.38093 6.38914Z" fill="white"/>
<path d="M16.0388 14.5189L15.9029 14.5489C15.8468 14.5614 15.7894 14.5677 15.7321 14.5677C15.3658 14.5677 15.0425 14.3079 14.9633 13.9499C14.9178 13.7444 14.9551 13.5334 15.0682 13.356C15.1814 13.1785 15.3568 13.0557 15.5624 13.0102L16.1625 12.8774L16.5182 8.15434L8.41951 7.54431L7.95621 13.6946L8.45164 13.9723L8.87546 8.34567L9.23143 8.37245L8.79101 14.2197C8.86345 14.3049 8.91808 14.405 8.94929 14.5159C9.00628 14.7185 8.98096 14.9312 8.87799 15.1148C8.83331 15.1945 8.77479 15.2632 8.708 15.3215L8.35517 20.0061L7.99921 19.9793L8.33643 15.5022C8.28854 15.5113 8.23996 15.5175 8.19023 15.5175C8.06354 15.5175 7.93839 15.4855 7.82578 15.4266L7.61279 18.2539L8.11625 20.7553L15.527 21.3135L16.0388 14.5189Z" fill="white"/>
<path d="M8.69864 21.4896L8.7274 21.1082L8.17896 21.0669L8.25737 21.4564L8.69864 21.4896Z" fill="white"/>
<path d="M14.1479 21.9008L14.1766 21.5194L15.3207 21.6055L15.292 21.9868L14.1479 21.9008Z" fill="white"/>
<path d="M20.0737 18.8649C20.0638 19.0881 20.1324 19.3079 20.2676 19.4858L22.5321 22.4663C22.7202 22.7139 23.0055 22.844 23.2943 22.844C23.4959 22.844 23.6991 22.7805 23.8721 22.6492C24.2927 22.3296 24.3745 21.7297 24.055 21.3093L21.9998 18.6042L22.1291 15.6936L20.1331 17.5289L20.0737 18.8649Z" fill="white"/>
<path d="M19.1422 6.14384C19.8837 6.50929 20.5856 6.62841 20.8071 6.44251C20.6939 6.71638 19.9319 6.72579 19.0808 6.45903C18.918 6.408 18.7642 6.35032 18.6214 6.28866C18.3509 7.09323 18.71 7.99336 19.4923 8.37893C20.345 8.79916 21.3769 8.44878 21.7972 7.59593C22.2175 6.74331 21.8669 5.7113 21.0142 5.29099C20.5909 5.08237 20.1237 5.06386 19.7089 5.20225C19.6816 5.18817 19.6549 5.17387 19.627 5.16017C18.8122 4.75861 18.0431 4.65319 17.9091 4.92485C17.7753 5.19644 18.3274 5.7422 19.1422 6.14384Z" fill="white"/>
<path d="M15.6002 13.182C15.2702 13.2551 15.0619 13.5818 15.135 13.9119C15.1981 14.1974 15.4511 14.3918 15.7319 14.3918C15.7757 14.3918 15.8202 14.387 15.8647 14.3772L18.9758 13.6887C19.1223 13.6563 19.2519 13.5711 19.3398 13.4496L21.2232 10.8421C21.4211 10.5681 21.3593 10.1855 21.0854 9.98762C20.8112 9.78971 20.4288 9.85144 20.2309 10.1254L18.4838 12.5439L15.6002 13.182Z" fill="white"/>
<path d="M0.62776 22.6491C0.800732 22.7806 1.00392 22.844 1.20558 22.844C1.49423 22.844 1.77966 22.7138 1.96777 22.4662L4.23224 19.4858C4.3675 19.3078 4.43605 19.0881 4.4261 18.8648L4.36673 17.5288L2.37087 15.6935L2.50008 18.6042L0.444919 21.3092C0.125369 21.7297 0.207303 22.3297 0.62776 22.6491Z" fill="white"/>
<path d="M2.22808 15.288C2.26863 15.3475 2.31568 15.4038 2.37099 15.4546L5.49779 18.3298L6.25249 22.0797C6.34383 22.5338 6.74287 22.8475 7.18888 22.8474C7.25138 22.8474 7.31495 22.8412 7.3786 22.8285C7.89637 22.7243 8.23153 22.22 8.12733 21.7023L7.31128 17.6477C7.27142 17.4496 7.16983 17.2692 7.02111 17.1324L4.60937 14.9148C4.60991 14.8331 4.60738 14.744 4.60157 14.6465C4.5728 14.4319 4.5598 14.211 4.5572 13.9876C4.55567 13.8587 4.5572 13.7291 4.56271 13.5988L4.49668 13.5618C4.35141 13.4803 4.23742 13.3574 4.16726 13.2062L3.05798 10.8155C2.87506 10.4214 3.04697 9.95198 3.4411 9.76907C3.54599 9.72041 3.65745 9.69578 3.77236 9.69578C4.07806 9.69578 4.35875 9.87495 4.4875 10.1522L5.03159 11.3247L5.86852 12.2519C5.93975 12.3308 6.03025 12.3898 6.13123 12.4231L7.78093 12.9669L7.87564 11.7093L6.66843 11.3114L4.64785 9.0729C4.52874 8.94085 4.36502 8.87346 4.20016 8.8717C3.55249 8.75893 2.66973 9.12943 2.30107 10.2015C1.86761 11.4865 1.71827 12.3993 1.79439 13.6495C1.80969 13.9008 1.83333 14.1645 1.86638 14.4489C1.9386 14.8204 2.06613 15.091 2.22808 15.288Z" fill="white"/>
<path d="M5.00779 8.37898C5.79018 7.99341 6.1492 7.0932 5.87869 6.28871C5.73586 6.35029 5.58209 6.40805 5.4193 6.45908C4.56821 6.72584 3.80617 6.71643 3.69294 6.44255C3.9145 6.62838 4.6164 6.50926 5.35786 6.14389C6.17269 5.74233 6.72473 5.19648 6.59093 4.92497C6.45705 4.65332 5.6879 4.75874 4.87307 5.1603C4.84522 5.17407 4.81845 5.1883 4.79121 5.20237C4.37642 5.06406 3.90914 5.08249 3.48585 5.29112C2.63316 5.71134 2.28262 6.74336 2.70285 7.59605C3.12316 8.44875 4.15509 8.7992 5.00779 8.37898Z" fill="white"/>
<path d="M7.89153 15.2633C7.98616 15.3164 8.0889 15.3415 8.19027 15.3415C8.40448 15.3415 8.61241 15.2289 8.72456 15.0287C8.88988 14.7339 8.78492 14.3609 8.49008 14.1955L5.35395 12.4371L4.32797 10.2259C4.1856 9.91929 3.82191 9.78609 3.51521 9.92831C3.20859 10.0706 3.0754 10.4345 3.21762 10.7411L4.3269 13.1318C4.38107 13.2484 4.47057 13.3451 4.5828 13.408L7.89153 15.2633Z" fill="white"/>
</g>
<defs>
<clipPath id="clip0_2149_346">
<rect width="24" height="24" fill="white" transform="translate(0.25)"/>
</clipPath>
</defs>
</svg>
