<svg width="109" height="99" viewBox="0 0 109 99" fill="none" xmlns="http://www.w3.org/2000/svg">
<path fill-rule="evenodd" clip-rule="evenodd" d="M2.64099 17.2166C3.33558 17.2166 4.01695 16.9353 4.50818 16.4427C5.00072 15.9515 5.28199 15.2715 5.28199 14.5756C5.28199 13.8797 5.00072 13.1996 4.50818 12.7084C4.01695 12.2158 3.33558 11.9346 2.64099 11.9346C1.94509 11.9346 1.26504 12.2158 0.772491 12.7084C0.281266 13.1996 0 13.8797 0 14.5756C0 15.2715 0.281266 15.9515 0.772491 16.4427C1.26504 16.9353 1.94509 17.2166 2.64099 17.2166Z" fill="#F9710D"/>
<path fill-rule="evenodd" clip-rule="evenodd" d="M31.6853 17.2166H31.6985C33.154 17.2166 34.3329 16.0334 34.3329 14.5756C34.3329 13.1177 33.154 11.9346 31.6985 11.9346H31.6853C30.2311 11.9346 29.0509 13.1177 29.0509 14.5756C29.0509 16.0334 30.2311 17.2166 31.6853 17.2166Z" fill="#F9710D"/>
<path fill-rule="evenodd" clip-rule="evenodd" d="M17.6 17.2166H17.6132C19.0674 17.2166 20.2476 16.0334 20.2476 14.5756C20.2476 13.1177 19.0674 11.9346 17.6132 11.9346H17.6C16.1459 11.9346 14.9656 13.1177 14.9656 14.5756C14.9656 16.0334 16.1459 17.2166 17.6 17.2166Z" fill="#F9710D"/>
<path fill-rule="evenodd" clip-rule="evenodd" d="M46.6575 17.2166C47.3521 17.2166 48.0335 16.9353 48.5247 16.4427C49.0173 15.9515 49.2985 15.2715 49.2985 14.5756C49.2985 13.8797 49.0173 13.1996 48.5247 12.7084C48.0335 12.2158 47.3521 11.9346 46.6575 11.9346C45.9616 11.9346 45.2816 12.2158 44.789 12.7084C44.2978 13.1996 44.0165 13.8797 44.0165 14.5756C44.0165 15.2715 44.2978 15.9515 44.789 16.4427C45.2816 16.9353 45.9616 17.2166 46.6575 17.2166Z" fill="#F9710D"/>
<path fill-rule="evenodd" clip-rule="evenodd" d="M61.6232 17.2166C62.3191 17.2166 62.9992 16.9353 63.4917 16.4427C63.9829 15.9515 64.2642 15.2715 64.2642 14.5756C64.2642 13.8797 63.9829 13.1996 63.4917 12.7084C62.9992 12.2158 62.3191 11.9346 61.6232 11.9346C60.9286 11.9346 60.2472 12.2158 59.756 12.7084C59.2635 13.1996 58.9822 13.8797 58.9822 14.5756C58.9822 15.2715 59.2635 15.9515 59.756 16.4427C60.2472 16.9353 60.9286 17.2166 61.6232 17.2166Z" fill="#F9710D"/>
<path fill-rule="evenodd" clip-rule="evenodd" d="M90.6675 17.2166H90.6807C92.1362 17.2166 93.3151 16.0334 93.3151 14.5756C93.3151 13.1177 92.1362 11.9346 90.6807 11.9346H90.6675C89.2133 11.9346 88.0331 13.1177 88.0331 14.5756C88.0331 16.0334 89.2133 17.2166 90.6675 17.2166Z" fill="#F9710D"/>
<path fill-rule="evenodd" clip-rule="evenodd" d="M75.7019 17.2166H75.7151C77.1693 17.2166 78.3495 16.0334 78.3495 14.5756C78.3495 13.1177 77.1693 11.9346 75.7151 11.9346H75.7019C74.2477 11.9346 73.0675 13.1177 73.0675 14.5756C73.0675 16.0334 74.2477 17.2166 75.7019 17.2166Z" fill="#F9710D"/>
<mask id="mask0_243_1439" style="mask-type:luminance" maskUnits="userSpaceOnUse" x="102" y="11" width="7" height="7">
<path fill-rule="evenodd" clip-rule="evenodd" d="M102.385 11.748H108.019V17.3822H102.385V11.748Z" fill="white"/>
</mask>
<g mask="url(#mask0_243_1439)">
<path fill-rule="evenodd" clip-rule="evenodd" d="M105.202 17.3822C105.943 17.3822 106.67 17.0822 107.194 16.5568C107.719 16.0328 108.019 15.3074 108.019 14.5651C108.019 13.8228 107.719 13.0974 107.194 12.5734C106.67 12.0481 105.943 11.748 105.202 11.748C104.46 11.748 103.734 12.0481 103.209 12.5734C102.685 13.0974 102.385 13.8228 102.385 14.5651C102.385 15.3074 102.685 16.0328 103.209 16.5568C103.734 17.0822 104.46 17.3822 105.202 17.3822Z" fill="#F9710D"/>
</g>
<path fill-rule="evenodd" clip-rule="evenodd" d="M2.64099 5.77222C3.33558 5.77222 4.01695 5.49096 4.50818 4.99841C5.00072 4.50719 5.28199 3.82581 5.28199 3.13123C5.28199 2.43533 5.00072 1.75527 4.50818 1.26273C4.01695 0.7715 3.33558 0.490234 2.64099 0.490234C1.94509 0.490234 1.26504 0.7715 0.772491 1.26273C0.281266 1.75527 0 2.43533 0 3.13123C0 3.82581 0.281266 4.50719 0.772491 4.99841C1.26504 5.49096 1.94509 5.77222 2.64099 5.77222Z" fill="#F9710D"/>
<path fill-rule="evenodd" clip-rule="evenodd" d="M31.6853 5.77222H31.6985C33.154 5.77222 34.3329 4.58906 34.3329 3.13123C34.3329 1.6734 33.154 0.490234 31.6985 0.490234H31.6853C30.2311 0.490234 29.0509 1.6734 29.0509 3.13123C29.0509 4.58906 30.2311 5.77222 31.6853 5.77222Z" fill="#F9710D"/>
<path fill-rule="evenodd" clip-rule="evenodd" d="M17.6 5.77222H17.6132C19.0674 5.77222 20.2476 4.58906 20.2476 3.13123C20.2476 1.6734 19.0674 0.490234 17.6132 0.490234H17.6C16.1459 0.490234 14.9656 1.6734 14.9656 3.13123C14.9656 4.58906 16.1459 5.77222 17.6 5.77222Z" fill="#F9710D"/>
<path fill-rule="evenodd" clip-rule="evenodd" d="M46.6575 5.77222C47.3521 5.77222 48.0335 5.49096 48.5247 4.99841C49.0173 4.50719 49.2985 3.82581 49.2985 3.13123C49.2985 2.43533 49.0173 1.75527 48.5247 1.26273C48.0335 0.7715 47.3521 0.490234 46.6575 0.490234C45.9616 0.490234 45.2816 0.7715 44.789 1.26273C44.2978 1.75527 44.0165 2.43533 44.0165 3.13123C44.0165 3.82581 44.2978 4.50719 44.789 4.99841C45.2816 5.49096 45.9616 5.77222 46.6575 5.77222Z" fill="#F9710D"/>
<path fill-rule="evenodd" clip-rule="evenodd" d="M61.6232 5.77222C62.3191 5.77222 62.9992 5.49096 63.4917 4.99841C63.9829 4.50719 64.2642 3.82581 64.2642 3.13123C64.2642 2.43533 63.9829 1.75527 63.4917 1.26273C62.9992 0.7715 62.3191 0.490234 61.6232 0.490234C60.9286 0.490234 60.2472 0.7715 59.756 1.26273C59.2635 1.75527 58.9822 2.43533 58.9822 3.13123C58.9822 3.82581 59.2635 4.50719 59.756 4.99841C60.2472 5.49096 60.9286 5.77222 61.6232 5.77222Z" fill="#F9710D"/>
<path fill-rule="evenodd" clip-rule="evenodd" d="M90.6675 5.77222H90.6807C92.1362 5.77222 93.3151 4.58906 93.3151 3.13123C93.3151 1.6734 92.1362 0.490234 90.6807 0.490234H90.6675C89.2133 0.490234 88.0331 1.6734 88.0331 3.13123C88.0331 4.58906 89.2133 5.77222 90.6675 5.77222Z" fill="#F9710D"/>
<path fill-rule="evenodd" clip-rule="evenodd" d="M75.7019 5.77222H75.7151C77.1693 5.77222 78.3495 4.58906 78.3495 3.13123C78.3495 1.6734 77.1693 0.490234 75.7151 0.490234H75.7019C74.2477 0.490234 73.0675 1.6734 73.0675 3.13123C73.0675 4.58906 74.2477 5.77222 75.7019 5.77222Z" fill="#F9710D"/>
<mask id="mask1_243_1439" style="mask-type:luminance" maskUnits="userSpaceOnUse" x="102" y="0" width="7" height="6">
<path fill-rule="evenodd" clip-rule="evenodd" d="M102.385 0H108.019V5.63412H102.385V0Z" fill="white"/>
</mask>
<g mask="url(#mask1_243_1439)">
<path fill-rule="evenodd" clip-rule="evenodd" d="M105.202 5.63412C105.943 5.63412 106.67 5.3341 107.194 4.80872C107.719 4.28475 108.019 3.55795 108.019 2.81706C108.019 2.07476 107.719 1.34937 107.194 0.82399C106.67 0.300017 105.943 0 105.202 0C104.46 0 103.734 0.300017 103.209 0.82399C102.685 1.34937 102.385 2.07476 102.385 2.81706C102.385 3.55795 102.685 4.28475 103.209 4.80872C103.734 5.3341 104.46 5.63412 105.202 5.63412Z" fill="#F9710D"/>
</g>
<path fill-rule="evenodd" clip-rule="evenodd" d="M2.64099 28.6609C3.33558 28.6609 4.01695 28.3796 4.50818 27.8871C5.00072 27.3959 5.28199 26.7158 5.28199 26.0199C5.28199 25.3253 5.00072 24.6439 4.50818 24.1527C4.01695 23.6602 3.33558 23.3789 2.64099 23.3789C1.94509 23.3789 1.26504 23.6602 0.772491 24.1527C0.281266 24.6439 0 25.3253 0 26.0199C0 26.7158 0.281266 27.3959 0.772491 27.8871C1.26504 28.3796 1.94509 28.6609 2.64099 28.6609Z" fill="#F9710D"/>
<path fill-rule="evenodd" clip-rule="evenodd" d="M31.6853 28.6609H31.6985C33.154 28.6609 34.3329 27.4777 34.3329 26.0199C34.3329 24.5621 33.154 23.3789 31.6985 23.3789H31.6853C30.2311 23.3789 29.0509 24.5621 29.0509 26.0199C29.0509 27.4777 30.2311 28.6609 31.6853 28.6609Z" fill="#F9710D"/>
<path fill-rule="evenodd" clip-rule="evenodd" d="M17.6 28.6609H17.6132C19.0674 28.6609 20.2476 27.4777 20.2476 26.0199C20.2476 24.5621 19.0674 23.3789 17.6132 23.3789H17.6C16.1459 23.3789 14.9656 24.5621 14.9656 26.0199C14.9656 27.4777 16.1459 28.6609 17.6 28.6609Z" fill="#F9710D"/>
<path fill-rule="evenodd" clip-rule="evenodd" d="M46.6575 28.6609C47.3521 28.6609 48.0335 28.3796 48.5247 27.8871C49.0173 27.3959 49.2985 26.7158 49.2985 26.0199C49.2985 25.3253 49.0173 24.6439 48.5247 24.1527C48.0335 23.6602 47.3521 23.3789 46.6575 23.3789C45.9616 23.3789 45.2816 23.6602 44.789 24.1527C44.2978 24.6439 44.0165 25.3253 44.0165 26.0199C44.0165 26.7158 44.2978 27.3959 44.789 27.8871C45.2816 28.3796 45.9616 28.6609 46.6575 28.6609Z" fill="#F9710D"/>
<path fill-rule="evenodd" clip-rule="evenodd" d="M61.6232 28.6609C62.3191 28.6609 62.9992 28.3796 63.4917 27.8871C63.9829 27.3959 64.2642 26.7158 64.2642 26.0199C64.2642 25.3253 63.9829 24.6439 63.4917 24.1527C62.9992 23.6602 62.3191 23.3789 61.6232 23.3789C60.9286 23.3789 60.2472 23.6602 59.756 24.1527C59.2635 24.6439 58.9822 25.3253 58.9822 26.0199C58.9822 26.7158 59.2635 27.3959 59.756 27.8871C60.2472 28.3796 60.9286 28.6609 61.6232 28.6609Z" fill="#F9710D"/>
<path fill-rule="evenodd" clip-rule="evenodd" d="M90.6675 28.6609H90.6807C92.1362 28.6609 93.3151 27.4777 93.3151 26.0199C93.3151 24.5621 92.1362 23.3789 90.6807 23.3789H90.6675C89.2133 23.3789 88.0331 24.5621 88.0331 26.0199C88.0331 27.4777 89.2133 28.6609 90.6675 28.6609Z" fill="#F9710D"/>
<path fill-rule="evenodd" clip-rule="evenodd" d="M75.7019 28.6609H75.7151C77.1693 28.6609 78.3495 27.4777 78.3495 26.0199C78.3495 24.5621 77.1693 23.3789 75.7151 23.3789H75.7019C74.2477 23.3789 73.0675 24.5621 73.0675 26.0199C73.0675 27.4777 74.2477 28.6609 75.7019 28.6609Z" fill="#F9710D"/>
<mask id="mask2_243_1439" style="mask-type:luminance" maskUnits="userSpaceOnUse" x="102" y="23" width="7" height="7">
<path fill-rule="evenodd" clip-rule="evenodd" d="M102.385 23.4956H108.019V29.1297H102.385V23.4956Z" fill="white"/>
</mask>
<g mask="url(#mask2_243_1439)">
<path fill-rule="evenodd" clip-rule="evenodd" d="M105.202 29.1297C105.943 29.1297 106.67 28.8297 107.194 28.3043C107.719 27.7804 108.019 27.055 108.019 26.3127C108.019 25.5718 107.719 24.845 107.194 24.321C106.67 23.7956 105.943 23.4956 105.202 23.4956C104.46 23.4956 103.734 23.7956 103.209 24.321C102.685 24.845 102.385 25.5718 102.385 26.3127C102.385 27.055 102.685 27.7804 103.209 28.3043C103.734 28.8297 104.46 29.1297 105.202 29.1297Z" fill="#F9710D"/>
</g>
<path fill-rule="evenodd" clip-rule="evenodd" d="M2.64099 40.1047C3.33558 40.1047 4.01695 39.8235 4.50818 39.3309C5.00072 38.8397 5.28199 38.1596 5.28199 37.4637C5.28199 36.7678 5.00072 36.0878 4.50818 35.5966C4.01695 35.104 3.33558 34.8228 2.64099 34.8228C1.94509 34.8228 1.26504 35.104 0.772491 35.5966C0.281266 36.0878 0 36.7678 0 37.4637C0 38.1596 0.281266 38.8397 0.772491 39.3309C1.26504 39.8235 1.94509 40.1047 2.64099 40.1047Z" fill="#F9710D"/>
<path fill-rule="evenodd" clip-rule="evenodd" d="M31.6853 40.1047H31.6985C33.154 40.1047 34.3329 38.9216 34.3329 37.4637C34.3329 36.0059 33.154 34.8228 31.6985 34.8228H31.6853C30.2311 34.8228 29.0509 36.0059 29.0509 37.4637C29.0509 38.9216 30.2311 40.1047 31.6853 40.1047Z" fill="#F9710D"/>
<path fill-rule="evenodd" clip-rule="evenodd" d="M17.6 40.1047H17.6132C19.0674 40.1047 20.2476 38.9216 20.2476 37.4637C20.2476 36.0059 19.0674 34.8228 17.6132 34.8228H17.6C16.1459 34.8228 14.9656 36.0059 14.9656 37.4637C14.9656 38.9216 16.1459 40.1047 17.6 40.1047Z" fill="#F9710D"/>
<path fill-rule="evenodd" clip-rule="evenodd" d="M46.6575 40.1047C47.3521 40.1047 48.0335 39.8235 48.5247 39.3309C49.0173 38.8397 49.2985 38.1596 49.2985 37.4637C49.2985 36.7678 49.0173 36.0878 48.5247 35.5966C48.0335 35.104 47.3521 34.8228 46.6575 34.8228C45.9616 34.8228 45.2816 35.104 44.789 35.5966C44.2978 36.0878 44.0165 36.7678 44.0165 37.4637C44.0165 38.1596 44.2978 38.8397 44.789 39.3309C45.2816 39.8235 45.9616 40.1047 46.6575 40.1047Z" fill="#F9710D"/>
<path fill-rule="evenodd" clip-rule="evenodd" d="M61.6232 40.1047C62.3191 40.1047 62.9992 39.8235 63.4917 39.3309C63.9829 38.8397 64.2642 38.1596 64.2642 37.4637C64.2642 36.7678 63.9829 36.0878 63.4917 35.5966C62.9992 35.104 62.3191 34.8228 61.6232 34.8228C60.9286 34.8228 60.2472 35.104 59.756 35.5966C59.2635 36.0878 58.9822 36.7678 58.9822 37.4637C58.9822 38.1596 59.2635 38.8397 59.756 39.3309C60.2472 39.8235 60.9286 40.1047 61.6232 40.1047Z" fill="#F9710D"/>
<path fill-rule="evenodd" clip-rule="evenodd" d="M90.6675 40.1047H90.6807C92.1362 40.1047 93.3151 38.9216 93.3151 37.4637C93.3151 36.0059 92.1362 34.8228 90.6807 34.8228H90.6675C89.2133 34.8228 88.0331 36.0059 88.0331 37.4637C88.0331 38.9216 89.2133 40.1047 90.6675 40.1047Z" fill="#F9710D"/>
<path fill-rule="evenodd" clip-rule="evenodd" d="M75.7019 40.1047H75.7151C77.1693 40.1047 78.3495 38.9216 78.3495 37.4637C78.3495 36.0059 77.1693 34.8228 75.7151 34.8228H75.7019C74.2477 34.8228 73.0675 36.0059 73.0675 37.4637C73.0675 38.9216 74.2477 40.1047 75.7019 40.1047Z" fill="#F9710D"/>
<mask id="mask3_243_1439" style="mask-type:luminance" maskUnits="userSpaceOnUse" x="102" y="35" width="7" height="6">
<path fill-rule="evenodd" clip-rule="evenodd" d="M102.385 35.2432H108.019V40.8773H102.385V35.2432Z" fill="white"/>
</mask>
<g mask="url(#mask3_243_1439)">
<path fill-rule="evenodd" clip-rule="evenodd" d="M105.202 40.8773C105.943 40.8773 106.67 40.5773 107.194 40.0519C107.719 39.5279 108.019 38.8025 108.019 38.0602C108.019 37.3179 107.719 36.5925 107.194 36.0686C106.67 35.5432 105.943 35.2432 105.202 35.2432C104.46 35.2432 103.734 35.5432 103.209 36.0686C102.685 36.5925 102.385 37.3179 102.385 38.0602C102.385 38.8025 102.685 39.5279 103.209 40.0519C103.734 40.5773 104.46 40.8773 105.202 40.8773Z" fill="#F9710D"/>
</g>
<path fill-rule="evenodd" clip-rule="evenodd" d="M2.64099 52.4299C3.33558 52.4299 4.01695 52.1487 4.50818 51.6561C5.00072 51.1649 5.28199 50.4848 5.28199 49.7889C5.28199 49.0944 5.00072 48.413 4.50818 47.9218C4.01695 47.4292 3.33558 47.1479 2.64099 47.1479C1.94509 47.1479 1.26504 47.4292 0.772491 47.9218C0.281266 48.413 0 49.0944 0 49.7889C0 50.4848 0.281266 51.1649 0.772491 51.6561C1.26504 52.1487 1.94509 52.4299 2.64099 52.4299Z" fill="#F9710D"/>
<path fill-rule="evenodd" clip-rule="evenodd" d="M31.6853 52.4299H31.6985C33.154 52.4299 34.3329 51.2468 34.3329 49.7889C34.3329 48.3311 33.154 47.1479 31.6985 47.1479H31.6853C30.2311 47.1479 29.0509 48.3311 29.0509 49.7889C29.0509 51.2468 30.2311 52.4299 31.6853 52.4299Z" fill="#F9710D"/>
<path fill-rule="evenodd" clip-rule="evenodd" d="M17.6 52.4299H17.6132C19.0674 52.4299 20.2476 51.2468 20.2476 49.7889C20.2476 48.3311 19.0674 47.1479 17.6132 47.1479H17.6C16.1459 47.1479 14.9656 48.3311 14.9656 49.7889C14.9656 51.2468 16.1459 52.4299 17.6 52.4299Z" fill="#F9710D"/>
<path fill-rule="evenodd" clip-rule="evenodd" d="M46.6575 52.4299C47.3521 52.4299 48.0335 52.1487 48.5247 51.6561C49.0173 51.1649 49.2985 50.4848 49.2985 49.7889C49.2985 49.0944 49.0173 48.413 48.5247 47.9218C48.0335 47.4292 47.3521 47.1479 46.6575 47.1479C45.9616 47.1479 45.2816 47.4292 44.789 47.9218C44.2978 48.413 44.0165 49.0944 44.0165 49.7889C44.0165 50.4848 44.2978 51.1649 44.789 51.6561C45.2816 52.1487 45.9616 52.4299 46.6575 52.4299Z" fill="#F9710D"/>
<path fill-rule="evenodd" clip-rule="evenodd" d="M61.6232 52.4299C62.3191 52.4299 62.9992 52.1487 63.4917 51.6561C63.9829 51.1649 64.2642 50.4848 64.2642 49.7889C64.2642 49.0944 63.9829 48.413 63.4917 47.9218C62.9992 47.4292 62.3191 47.1479 61.6232 47.1479C60.9286 47.1479 60.2472 47.4292 59.756 47.9218C59.2635 48.413 58.9822 49.0944 58.9822 49.7889C58.9822 50.4848 59.2635 51.1649 59.756 51.6561C60.2472 52.1487 60.9286 52.4299 61.6232 52.4299Z" fill="#F9710D"/>
<path fill-rule="evenodd" clip-rule="evenodd" d="M90.6675 52.4299H90.6807C92.1362 52.4299 93.3151 51.2468 93.3151 49.7889C93.3151 48.3311 92.1362 47.1479 90.6807 47.1479H90.6675C89.2133 47.1479 88.0331 48.3311 88.0331 49.7889C88.0331 51.2468 89.2133 52.4299 90.6675 52.4299Z" fill="#F9710D"/>
<path fill-rule="evenodd" clip-rule="evenodd" d="M75.7019 52.4299H75.7151C77.1693 52.4299 78.3495 51.2468 78.3495 49.7889C78.3495 48.3311 77.1693 47.1479 75.7151 47.1479H75.7019C74.2477 47.1479 73.0675 48.3311 73.0675 49.7889C73.0675 51.2468 74.2477 52.4299 75.7019 52.4299Z" fill="#F9710D"/>
<mask id="mask4_243_1439" style="mask-type:luminance" maskUnits="userSpaceOnUse" x="102" y="46" width="7" height="7">
<path fill-rule="evenodd" clip-rule="evenodd" d="M102.385 46.4624H108.019V52.0965H102.385V46.4624Z" fill="white"/>
</mask>
<g mask="url(#mask4_243_1439)">
<path fill-rule="evenodd" clip-rule="evenodd" d="M105.202 52.0965C105.943 52.0965 106.67 51.7965 107.194 51.2711C107.719 50.7472 108.019 50.0218 108.019 49.2795C108.019 48.5386 107.719 47.8118 107.194 47.2878C106.67 46.7624 105.943 46.4624 105.202 46.4624C104.46 46.4624 103.734 46.7624 103.209 47.2878C102.685 47.8118 102.385 48.5386 102.385 49.2795C102.385 50.0218 102.685 50.7472 103.209 51.2711C103.734 51.7965 104.46 52.0965 105.202 52.0965Z" fill="#F9710D"/>
</g>
<path fill-rule="evenodd" clip-rule="evenodd" d="M2.64099 63.8743C3.33558 63.8743 4.01695 63.593 4.50818 63.1018C5.00072 62.6092 5.28199 61.9292 5.28199 61.2333C5.28199 60.5387 5.00072 59.8573 4.50818 59.3661C4.01695 58.8736 3.33558 58.5923 2.64099 58.5923C1.94509 58.5923 1.26504 58.8736 0.772491 59.3661C0.281266 59.8573 0 60.5387 0 61.2333C0 61.9292 0.281266 62.6092 0.772491 63.1018C1.26504 63.593 1.94509 63.8743 2.64099 63.8743Z" fill="#F9710D"/>
<path fill-rule="evenodd" clip-rule="evenodd" d="M31.6853 63.8743H31.6985C33.154 63.8743 34.3329 62.6911 34.3329 61.2333C34.3329 59.7755 33.154 58.5923 31.6985 58.5923H31.6853C30.2311 58.5923 29.0509 59.7755 29.0509 61.2333C29.0509 62.6911 30.2311 63.8743 31.6853 63.8743Z" fill="#F9710D"/>
<path fill-rule="evenodd" clip-rule="evenodd" d="M17.6 63.8743H17.6132C19.0674 63.8743 20.2476 62.6911 20.2476 61.2333C20.2476 59.7755 19.0674 58.5923 17.6132 58.5923H17.6C16.1459 58.5923 14.9656 59.7755 14.9656 61.2333C14.9656 62.6911 16.1459 63.8743 17.6 63.8743Z" fill="#F9710D"/>
<path fill-rule="evenodd" clip-rule="evenodd" d="M46.6575 63.8743C47.3521 63.8743 48.0335 63.593 48.5247 63.1018C49.0173 62.6092 49.2985 61.9292 49.2985 61.2333C49.2985 60.5387 49.0173 59.8573 48.5247 59.3661C48.0335 58.8736 47.3521 58.5923 46.6575 58.5923C45.9616 58.5923 45.2816 58.8736 44.789 59.3661C44.2978 59.8573 44.0165 60.5387 44.0165 61.2333C44.0165 61.9292 44.2978 62.6092 44.789 63.1018C45.2816 63.593 45.9616 63.8743 46.6575 63.8743Z" fill="#F9710D"/>
<path fill-rule="evenodd" clip-rule="evenodd" d="M61.6232 63.8743C62.3191 63.8743 62.9992 63.593 63.4917 63.1018C63.9829 62.6092 64.2642 61.9292 64.2642 61.2333C64.2642 60.5387 63.9829 59.8573 63.4917 59.3661C62.9992 58.8736 62.3191 58.5923 61.6232 58.5923C60.9286 58.5923 60.2472 58.8736 59.756 59.3661C59.2635 59.8573 58.9822 60.5387 58.9822 61.2333C58.9822 61.9292 59.2635 62.6092 59.756 63.1018C60.2472 63.593 60.9286 63.8743 61.6232 63.8743Z" fill="#F9710D"/>
<path fill-rule="evenodd" clip-rule="evenodd" d="M90.6675 63.8743H90.6807C92.1362 63.8743 93.3151 62.6911 93.3151 61.2333C93.3151 59.7755 92.1362 58.5923 90.6807 58.5923H90.6675C89.2133 58.5923 88.0331 59.7755 88.0331 61.2333C88.0331 62.6911 89.2133 63.8743 90.6675 63.8743Z" fill="#F9710D"/>
<path fill-rule="evenodd" clip-rule="evenodd" d="M75.7019 63.8743H75.7151C77.1693 63.8743 78.3495 62.6911 78.3495 61.2333C78.3495 59.7755 77.1693 58.5923 75.7151 58.5923H75.7019C74.2477 58.5923 73.0675 59.7755 73.0675 61.2333C73.0675 62.6911 74.2477 63.8743 75.7019 63.8743Z" fill="#F9710D"/>
<mask id="mask5_243_1439" style="mask-type:luminance" maskUnits="userSpaceOnUse" x="102" y="58" width="7" height="6">
<path fill-rule="evenodd" clip-rule="evenodd" d="M102.385 58.21H108.019V63.8441H102.385V58.21Z" fill="white"/>
</mask>
<g mask="url(#mask5_243_1439)">
<path fill-rule="evenodd" clip-rule="evenodd" d="M105.202 63.8441C105.943 63.8441 106.67 63.5441 107.194 63.0201C107.719 62.4947 108.019 61.7693 108.019 61.027C108.019 60.2861 107.719 59.5593 107.194 59.0354C106.67 58.51 105.943 58.21 105.202 58.21C104.46 58.21 103.734 58.51 103.209 59.0354C102.685 59.5593 102.385 60.2861 102.385 61.027C102.385 61.7693 102.685 62.4947 103.209 63.0201C103.734 63.5441 104.46 63.8441 105.202 63.8441Z" fill="#F9710D"/>
</g>
<path fill-rule="evenodd" clip-rule="evenodd" d="M2.64099 75.3186C3.33558 75.3186 4.01695 75.0373 4.50818 74.5448C5.00072 74.0536 5.28199 73.3735 5.28199 72.6776C5.28199 71.983 5.00072 71.3017 4.50818 70.8104C4.01695 70.3179 3.33558 70.0366 2.64099 70.0366C1.94509 70.0366 1.26504 70.3179 0.772491 70.8104C0.281266 71.3017 0 71.983 0 72.6776C0 73.3735 0.281266 74.0536 0.772491 74.5448C1.26504 75.0373 1.94509 75.3186 2.64099 75.3186Z" fill="#F9710D"/>
<path fill-rule="evenodd" clip-rule="evenodd" d="M31.6853 75.3186H31.6985C33.154 75.3186 34.3329 74.1354 34.3329 72.6776C34.3329 71.2198 33.154 70.0366 31.6985 70.0366H31.6853C30.2311 70.0366 29.0509 71.2198 29.0509 72.6776C29.0509 74.1354 30.2311 75.3186 31.6853 75.3186Z" fill="#F9710D"/>
<path fill-rule="evenodd" clip-rule="evenodd" d="M17.6 75.3186H17.6132C19.0674 75.3186 20.2476 74.1354 20.2476 72.6776C20.2476 71.2198 19.0674 70.0366 17.6132 70.0366H17.6C16.1459 70.0366 14.9656 71.2198 14.9656 72.6776C14.9656 74.1354 16.1459 75.3186 17.6 75.3186Z" fill="#F9710D"/>
<path fill-rule="evenodd" clip-rule="evenodd" d="M46.6575 75.3186C47.3521 75.3186 48.0335 75.0373 48.5247 74.5448C49.0173 74.0536 49.2985 73.3735 49.2985 72.6776C49.2985 71.983 49.0173 71.3017 48.5247 70.8104C48.0335 70.3179 47.3521 70.0366 46.6575 70.0366C45.9616 70.0366 45.2816 70.3179 44.789 70.8104C44.2978 71.3017 44.0165 71.983 44.0165 72.6776C44.0165 73.3735 44.2978 74.0536 44.789 74.5448C45.2816 75.0373 45.9616 75.3186 46.6575 75.3186Z" fill="#F9710D"/>
<path fill-rule="evenodd" clip-rule="evenodd" d="M61.6232 75.3186C62.3191 75.3186 62.9992 75.0373 63.4917 74.5448C63.9829 74.0536 64.2642 73.3735 64.2642 72.6776C64.2642 71.983 63.9829 71.3017 63.4917 70.8104C62.9992 70.3179 62.3191 70.0366 61.6232 70.0366C60.9286 70.0366 60.2472 70.3179 59.756 70.8104C59.2635 71.3017 58.9822 71.983 58.9822 72.6776C58.9822 73.3735 59.2635 74.0536 59.756 74.5448C60.2472 75.0373 60.9286 75.3186 61.6232 75.3186Z" fill="#F9710D"/>
<path fill-rule="evenodd" clip-rule="evenodd" d="M90.6675 75.3186H90.6807C92.1362 75.3186 93.3151 74.1354 93.3151 72.6776C93.3151 71.2198 92.1362 70.0366 90.6807 70.0366H90.6675C89.2133 70.0366 88.0331 71.2198 88.0331 72.6776C88.0331 74.1354 89.2133 75.3186 90.6675 75.3186Z" fill="#F9710D"/>
<path fill-rule="evenodd" clip-rule="evenodd" d="M75.7019 75.3186H75.7151C77.1693 75.3186 78.3495 74.1354 78.3495 72.6776C78.3495 71.2198 77.1693 70.0366 75.7151 70.0366H75.7019C74.2477 70.0366 73.0675 71.2198 73.0675 72.6776C73.0675 74.1354 74.2477 75.3186 75.7019 75.3186Z" fill="#F9710D"/>
<mask id="mask6_243_1439" style="mask-type:luminance" maskUnits="userSpaceOnUse" x="102" y="69" width="7" height="7">
<path fill-rule="evenodd" clip-rule="evenodd" d="M102.385 69.958H108.019V75.5921H102.385V69.958Z" fill="white"/>
</mask>
<g mask="url(#mask6_243_1439)">
<path fill-rule="evenodd" clip-rule="evenodd" d="M105.202 75.5921C105.943 75.5921 106.67 75.2921 107.194 74.7667C107.719 74.2428 108.019 73.5174 108.019 72.7751C108.019 72.0342 107.719 71.3074 107.194 70.7834C106.67 70.258 105.943 69.958 105.202 69.958C104.46 69.958 103.734 70.258 103.209 70.7834C102.685 71.3074 102.385 72.0342 102.385 72.7751C102.385 73.5174 102.685 74.2428 103.209 74.7667C103.734 75.2921 104.46 75.5921 105.202 75.5921Z" fill="#F9710D"/>
</g>
<path fill-rule="evenodd" clip-rule="evenodd" d="M2.64099 86.7629C3.33558 86.7629 4.01695 86.4817 4.50818 85.9905C5.00072 85.4979 5.28199 84.8179 5.28199 84.122C5.28199 83.4274 5.00072 82.746 4.50818 82.2548C4.01695 81.7622 3.33558 81.481 2.64099 81.481C1.94509 81.481 1.26504 81.7622 0.772491 82.2548C0.281266 82.746 0 83.4274 0 84.122C0 84.8179 0.281266 85.4979 0.772491 85.9905C1.26504 86.4817 1.94509 86.7629 2.64099 86.7629Z" fill="#F9710D"/>
<path fill-rule="evenodd" clip-rule="evenodd" d="M31.6853 86.7629H31.6985C33.154 86.7629 34.3329 85.5811 34.3329 84.122C34.3329 82.6641 33.154 81.481 31.6985 81.481H31.6853C30.2311 81.481 29.0509 82.6641 29.0509 84.122C29.0509 85.5811 30.2311 86.7629 31.6853 86.7629Z" fill="#F9710D"/>
<path fill-rule="evenodd" clip-rule="evenodd" d="M17.6 86.7629H17.6132C19.0674 86.7629 20.2476 85.5811 20.2476 84.122C20.2476 82.6641 19.0674 81.481 17.6132 81.481H17.6C16.1459 81.481 14.9656 82.6641 14.9656 84.122C14.9656 85.5811 16.1459 86.7629 17.6 86.7629Z" fill="#F9710D"/>
<path fill-rule="evenodd" clip-rule="evenodd" d="M46.6575 86.7629C47.3521 86.7629 48.0335 86.4817 48.5247 85.9905C49.0173 85.4979 49.2985 84.8179 49.2985 84.122C49.2985 83.4274 49.0173 82.746 48.5247 82.2548C48.0335 81.7622 47.3521 81.481 46.6575 81.481C45.9616 81.481 45.2816 81.7622 44.789 82.2548C44.2978 82.746 44.0165 83.4274 44.0165 84.122C44.0165 84.8179 44.2978 85.4979 44.789 85.9905C45.2816 86.4817 45.9616 86.7629 46.6575 86.7629Z" fill="#F9710D"/>
<path fill-rule="evenodd" clip-rule="evenodd" d="M61.6232 86.7629C62.3191 86.7629 62.9992 86.4817 63.4917 85.9905C63.9829 85.4979 64.2642 84.8179 64.2642 84.122C64.2642 83.4274 63.9829 82.746 63.4917 82.2548C62.9992 81.7622 62.3191 81.481 61.6232 81.481C60.9286 81.481 60.2472 81.7622 59.756 82.2548C59.2635 82.746 58.9822 83.4274 58.9822 84.122C58.9822 84.8179 59.2635 85.4979 59.756 85.9905C60.2472 86.4817 60.9286 86.7629 61.6232 86.7629Z" fill="#F9710D"/>
<path fill-rule="evenodd" clip-rule="evenodd" d="M90.6675 86.7629H90.6807C92.1362 86.7629 93.3151 85.5811 93.3151 84.122C93.3151 82.6641 92.1362 81.481 90.6807 81.481H90.6675C89.2133 81.481 88.0331 82.6641 88.0331 84.122C88.0331 85.5811 89.2133 86.7629 90.6675 86.7629Z" fill="#F9710D"/>
<path fill-rule="evenodd" clip-rule="evenodd" d="M75.7019 86.7629H75.7151C77.1693 86.7629 78.3495 85.5811 78.3495 84.122C78.3495 82.6641 77.1693 81.481 75.7151 81.481H75.7019C74.2477 81.481 73.0675 82.6641 73.0675 84.122C73.0675 85.5811 74.2477 86.7629 75.7019 86.7629Z" fill="#F9710D"/>
<mask id="mask7_243_1439" style="mask-type:luminance" maskUnits="userSpaceOnUse" x="102" y="81" width="7" height="7">
<path fill-rule="evenodd" clip-rule="evenodd" d="M102.385 81.7056H108.019V87.3397H102.385V81.7056Z" fill="white"/>
</mask>
<g mask="url(#mask7_243_1439)">
<path fill-rule="evenodd" clip-rule="evenodd" d="M105.202 87.3397C105.943 87.3397 106.67 87.0397 107.194 86.5157C107.719 85.9903 108.019 85.2649 108.019 84.5226C108.019 83.7817 107.719 83.0549 107.194 82.531C106.67 82.0056 105.943 81.7056 105.202 81.7056C104.46 81.7056 103.734 82.0056 103.209 82.531C102.685 83.0549 102.385 83.7817 102.385 84.5226C102.385 85.2649 102.685 85.9903 103.209 86.5157C103.734 87.0397 104.46 87.3397 105.202 87.3397Z" fill="#F9710D"/>
</g>
<mask id="mask8_243_1439" style="mask-type:luminance" maskUnits="userSpaceOnUse" x="0" y="92" width="6" height="7">
<path fill-rule="evenodd" clip-rule="evenodd" d="M0.000274658 92.9253H5.28226V98.207H0.000274658V92.9253Z" fill="white"/>
</mask>
<g mask="url(#mask8_243_1439)">
<path fill-rule="evenodd" clip-rule="evenodd" d="M2.64127 98.2073C3.33585 98.2073 4.01723 97.926 4.50845 97.4335C5.001 96.9422 5.28226 96.2609 5.28226 95.5663C5.28226 94.8704 5.001 94.1903 4.50845 93.6978C4.01723 93.2066 3.33585 92.9253 2.64127 92.9253C1.94537 92.9253 1.26531 93.2066 0.772765 93.6978C0.28154 94.1903 0.000274658 94.8704 0.000274658 95.5663C0.000274658 96.2609 0.28154 96.9422 0.772765 97.4335C1.26531 97.926 1.94537 98.2073 2.64127 98.2073Z" fill="#F9710D"/>
</g>
<mask id="mask9_243_1439" style="mask-type:luminance" maskUnits="userSpaceOnUse" x="29" y="92" width="6" height="7">
<path fill-rule="evenodd" clip-rule="evenodd" d="M29.0443 92.9253H34.6925V98.207H29.0443V92.9253Z" fill="white"/>
</mask>
<g mask="url(#mask9_243_1439)">
<path fill-rule="evenodd" clip-rule="evenodd" d="M31.8614 98.2073H31.8755C33.4319 98.2073 34.6925 97.0241 34.6925 95.5663C34.6925 94.1071 33.4319 92.9253 31.8755 92.9253H31.8614C30.3064 92.9253 29.0443 94.1071 29.0443 95.5663C29.0443 97.0241 30.3064 98.2073 31.8614 98.2073Z" fill="#F9710D"/>
</g>
<mask id="mask10_243_1439" style="mask-type:luminance" maskUnits="userSpaceOnUse" x="14" y="92" width="7" height="7">
<path fill-rule="evenodd" clip-rule="evenodd" d="M14.5189 92.9253H20.1671V98.207H14.5189V92.9253Z" fill="white"/>
</mask>
<g mask="url(#mask10_243_1439)">
<path fill-rule="evenodd" clip-rule="evenodd" d="M17.3359 98.2073H17.35C18.905 98.2073 20.1671 97.0241 20.1671 95.5663C20.1671 94.1071 18.905 92.9253 17.35 92.9253H17.3359C15.7809 92.9253 14.5189 94.1071 14.5189 95.5663C14.5189 97.0241 15.7809 98.2073 17.3359 98.2073Z" fill="#F9710D"/>
</g>
<mask id="mask11_243_1439" style="mask-type:luminance" maskUnits="userSpaceOnUse" x="43" y="92" width="7" height="7">
<path fill-rule="evenodd" clip-rule="evenodd" d="M43.5774 92.9253H49.2115V98.207H43.5774V92.9253Z" fill="white"/>
</mask>
<g mask="url(#mask11_243_1439)">
<path fill-rule="evenodd" clip-rule="evenodd" d="M46.3945 98.2073C47.1354 98.2073 47.8622 97.926 48.3861 97.4335C48.9115 96.9422 49.2115 96.2609 49.2115 95.5663C49.2115 94.8704 48.9115 94.1903 48.3861 93.6978C47.8622 93.2066 47.1354 92.9253 46.3945 92.9253C45.6522 92.9253 44.9268 93.2066 44.4014 93.6978C43.8774 94.1903 43.5774 94.8704 43.5774 95.5663C43.5774 96.2609 43.8774 96.9422 44.4014 97.4335C44.9268 97.926 45.6522 98.2073 46.3945 98.2073Z" fill="#F9710D"/>
</g>
<mask id="mask12_243_1439" style="mask-type:luminance" maskUnits="userSpaceOnUse" x="58" y="92" width="7" height="7">
<path fill-rule="evenodd" clip-rule="evenodd" d="M58.455 92.9253H64.0891V98.207H58.455V92.9253Z" fill="white"/>
</mask>
<g mask="url(#mask12_243_1439)">
<path fill-rule="evenodd" clip-rule="evenodd" d="M61.2721 98.2073C62.0144 98.2073 62.7398 97.926 63.2651 97.4335C63.7891 96.9422 64.0891 96.2609 64.0891 95.5663C64.0891 94.8704 63.7891 94.1903 63.2651 93.6978C62.7398 93.2066 62.0144 92.9253 61.2721 92.9253C60.5312 92.9253 59.8044 93.2066 59.2804 93.6978C58.755 94.1903 58.455 94.8704 58.455 95.5663C58.455 96.2609 58.755 96.9422 59.2804 97.4335C59.8044 97.926 60.5312 98.2073 61.2721 98.2073Z" fill="#F9710D"/>
</g>
<mask id="mask13_243_1439" style="mask-type:luminance" maskUnits="userSpaceOnUse" x="87" y="92" width="7" height="7">
<path fill-rule="evenodd" clip-rule="evenodd" d="M87.4997 92.9253H93.1479V98.207H87.4997V92.9253Z" fill="white"/>
</mask>
<g mask="url(#mask13_243_1439)">
<path fill-rule="evenodd" clip-rule="evenodd" d="M90.3168 98.2073H90.3308C91.8873 98.2073 93.1479 97.0241 93.1479 95.5663C93.1479 94.1071 91.8873 92.9253 90.3308 92.9253H90.3168C88.7617 92.9253 87.4997 94.1071 87.4997 95.5663C87.4997 97.0241 88.7617 98.2073 90.3168 98.2073Z" fill="#F9710D"/>
</g>
<mask id="mask14_243_1439" style="mask-type:luminance" maskUnits="userSpaceOnUse" x="72" y="92" width="7" height="7">
<path fill-rule="evenodd" clip-rule="evenodd" d="M72.9743 92.9253H78.6225V98.207H72.9743V92.9253Z" fill="white"/>
</mask>
<g mask="url(#mask14_243_1439)">
<path fill-rule="evenodd" clip-rule="evenodd" d="M75.7913 98.2073H75.8054C77.3604 98.2073 78.6225 97.0241 78.6225 95.5663C78.6225 94.1071 77.3604 92.9253 75.8054 92.9253H75.7913C74.2363 92.9253 72.9743 94.1071 72.9743 95.5663C72.9743 97.0241 74.2363 98.2073 75.7913 98.2073Z" fill="#F9710D"/>
</g>
<mask id="mask15_243_1439" style="mask-type:luminance" maskUnits="userSpaceOnUse" x="102" y="92" width="7" height="7">
<path fill-rule="evenodd" clip-rule="evenodd" d="M102.385 92.9253H108.019V98.207H102.385V92.9253Z" fill="white"/>
</mask>
<g mask="url(#mask15_243_1439)">
<path fill-rule="evenodd" clip-rule="evenodd" d="M105.202 98.2073C105.943 98.2073 106.67 97.926 107.194 97.4335C107.719 96.9422 108.019 96.2609 108.019 95.5663C108.019 94.8704 107.719 94.1903 107.194 93.6978C106.67 93.2066 105.943 92.9253 105.202 92.9253C104.46 92.9253 103.734 93.2066 103.209 93.6978C102.685 94.1903 102.385 94.8704 102.385 95.5663C102.385 96.2609 102.685 96.9422 103.209 97.4335C103.734 97.926 104.46 98.2073 105.202 98.2073Z" fill="#F9710D"/>
</g>
</svg>
