<svg width="24" height="25" viewBox="0 0 24 25" fill="none" xmlns="http://www.w3.org/2000/svg">
<g id="instagram" clip-path="url(#clip0_265_8)">
<path id="Vector" d="M23.9766 7.55607C23.9204 6.28085 23.7142 5.40416 23.4188 4.64449C23.114 3.83812 22.6452 3.11617 22.0309 2.51602C21.4308 1.90652 20.7041 1.43292 19.907 1.13294C19.143 0.837529 18.2708 0.631312 16.9956 0.575088C15.7109 0.514102 15.303 0.5 12.0446 0.5C8.78613 0.5 8.37828 0.514102 7.0983 0.570326C5.82309 0.626551 4.94639 0.832951 4.18691 1.12817C3.38035 1.43292 2.65841 1.90176 2.05826 2.51602C1.44876 3.11617 0.975341 3.84288 0.675173 4.63991C0.379766 5.40416 0.173549 6.27609 0.117324 7.5513C0.0563382 8.83604 0.0422363 9.2439 0.0422363 12.5023C0.0422363 15.7608 0.0563382 16.1686 0.112563 17.4486C0.168787 18.7238 0.375187 19.6005 0.670594 20.3602C0.975341 21.1666 1.44876 21.8885 2.05826 22.4887C2.65841 23.0982 3.38511 23.5718 4.18214 23.8718C4.94639 24.1672 5.81833 24.3734 7.09372 24.4296C8.37352 24.486 8.78155 24.4999 12.04 24.4999C15.2985 24.4999 15.7063 24.486 16.9863 24.4296C18.2615 24.3734 19.1382 24.1672 19.8977 23.8718C21.5106 23.2482 22.7858 21.9729 23.4094 20.3602C23.7046 19.596 23.911 18.7238 23.9673 17.4486C24.0235 16.1686 24.0376 15.7608 24.0376 12.5023C24.0376 9.2439 24.0328 8.83604 23.9766 7.55607ZM21.8153 17.3549C21.7637 18.527 21.5668 19.1599 21.4027 19.5819C20.9995 20.6274 20.1696 21.4572 19.1241 21.8605C18.7021 22.0246 18.0646 22.2215 16.8971 22.2729C15.6312 22.3293 15.2516 22.3433 12.0493 22.3433C8.84712 22.3433 8.4627 22.3293 7.20141 22.2729C6.02931 22.2215 5.39637 22.0246 4.97441 21.8605C4.45411 21.6682 3.98051 21.3634 3.59609 20.9649C3.19758 20.5758 2.89283 20.1069 2.70053 19.5866C2.53644 19.1647 2.33956 18.527 2.2881 17.3596C2.23169 16.0937 2.21777 15.7139 2.21777 12.5117C2.21777 9.30946 2.23169 8.92505 2.2881 7.66394C2.33956 6.49183 2.53644 5.8589 2.70053 5.43694C2.89283 4.91645 3.19758 4.44303 3.60085 4.05843C3.98985 3.65992 4.45869 3.35517 4.97918 3.16306C5.40113 2.99896 6.03883 2.80209 7.20617 2.75044C8.47204 2.69422 8.85188 2.68011 12.0539 2.68011C15.2609 2.68011 15.6406 2.69422 16.9019 2.75044C18.074 2.80209 18.7069 2.99896 19.1289 3.16306C19.6492 3.35517 20.1228 3.65992 20.5072 4.05843C20.9057 4.44761 21.2104 4.91645 21.4027 5.43694C21.5668 5.8589 21.7637 6.49641 21.8153 7.66394C21.8716 8.92981 21.8857 9.30946 21.8857 12.5117C21.8857 15.7139 21.8716 16.089 21.8153 17.3549Z" fill="white"/>
<path id="Vector_2" d="M12.0442 6.33691C8.64049 6.33691 5.87891 9.09832 5.87891 12.5022C5.87891 15.906 8.64049 18.6674 12.0442 18.6674C15.448 18.6674 18.2094 15.906 18.2094 12.5022C18.2094 9.09832 15.448 6.33691 12.0442 6.33691ZM12.0442 16.5014C9.83604 16.5014 8.04492 14.7105 8.04492 12.5022C8.04492 10.2939 9.83604 8.50293 12.0442 8.50293C14.2525 8.50293 16.0434 10.2939 16.0434 12.5022C16.0434 14.7105 14.2525 16.5014 12.0442 16.5014Z" fill="white"/>
<path id="Vector_3" d="M19.8934 6.0936C19.8934 6.88844 19.249 7.53291 18.454 7.53291C17.6591 7.53291 17.0146 6.88844 17.0146 6.0936C17.0146 5.29859 17.6591 4.6543 18.454 4.6543C19.249 4.6543 19.8934 5.29859 19.8934 6.0936Z" fill="white"/>
</g>
<defs>
<clipPath id="clip0_265_8">
<rect width="24" height="24" fill="white" transform="translate(0 0.5)"/>
</clipPath>
</defs>
</svg>
