<svg width="25" height="24" viewBox="0 0 25 24" fill="none" xmlns="http://www.w3.org/2000/svg">
<g clip-path="url(#clip0_2149_390)">
<path d="M9.19391 11.2167L11.1328 9.50409C11.2289 9.62275 11.3806 9.69434 11.5481 9.67896C11.7957 9.65607 11.9795 9.43799 11.9795 9.18952V8.75611L12.0712 8.67518C12.4266 8.36133 12.4601 7.81879 12.1463 7.46357C12.0961 7.4068 12.0397 7.3592 11.9795 7.31891V6.01868C12.4003 5.83484 12.6943 5.41517 12.6943 4.92664C12.6943 4.58863 12.5533 4.28394 12.327 4.06751C12.2413 3.98548 12.0987 4.04755 12.0987 4.1662V4.45038C12.0987 4.63587 11.9482 4.78638 11.7625 4.78638H11.2434C11.0577 4.78638 10.9072 4.63605 10.9072 4.45038V4.16602C10.9072 4.0459 10.7633 3.98639 10.6767 4.06971C10.4258 4.31086 10.2805 4.66059 10.3171 5.04383C10.3588 5.47962 10.6414 5.84803 11.0264 6.01777V7.31873C10.9949 7.33997 10.964 7.36268 10.9347 7.38849L9.48395 8.66987V8.00373C9.47827 6.88495 8.55286 5.9784 7.4209 5.9784H2.81305C1.68109 5.9784 0.755676 6.88495 0.75 7.99952V14.2894C0.75 14.7546 1.112 15.1511 1.57709 15.1677C2.06543 15.1851 2.46661 14.7944 2.46661 14.3099V8.00373C2.46753 7.84424 2.63251 7.6952 2.81305 7.6952H2.84363L2.83466 22.4121C2.83429 22.971 3.26862 23.4468 3.8269 23.4668C4.41302 23.4877 4.89478 23.0189 4.89478 22.4376V14.2042H5.33936V22.4128C5.33936 22.9713 5.77368 23.447 6.33197 23.4668C6.91791 23.4877 7.39948 23.0187 7.39948 22.4374C7.39948 22.4313 7.40002 8.65595 7.39948 7.69501H7.42108C7.60144 7.69501 7.7666 7.84424 7.76733 8.00812V10.5732C7.76733 11.3152 8.64368 11.7025 9.19391 11.2167Z" fill="white"/>
<path d="M5.11694 5.41132C6.09491 5.41132 6.89581 4.6181 6.89581 3.63245C6.89581 2.65576 6.10553 1.85339 5.11676 1.85339C4.13348 1.85339 3.33789 2.65045 3.33789 3.63226C3.33789 4.61829 4.13898 5.41132 5.11694 5.41132Z" fill="white"/>
<path d="M24.7499 1.85342C24.7499 0.95565 23.8325 0.331444 22.9904 0.644188L17.5214 2.67556C17.0161 2.86324 16.6806 3.34554 16.6806 3.8846V6.38839C16.6806 6.65188 16.8943 6.86538 17.1576 6.86538H17.4941V7.80178L16.1472 8.57925C15.9998 8.66439 15.909 8.82168 15.909 8.99197V10.1864C15.909 10.4401 16.1005 10.6617 16.3538 10.6782C16.6312 10.6961 16.8621 10.4764 16.8621 10.2027V9.26699L17.9706 8.62704L19.0791 9.26699V10.1864C19.0791 10.4401 19.2706 10.6617 19.5239 10.6782C19.8013 10.6961 20.0322 10.4764 20.0322 10.2027V8.99197C20.0322 8.82168 19.9412 8.66439 19.7938 8.57925L18.447 7.80178V6.86538H18.7834C19.0469 6.86538 19.2604 6.65188 19.2604 6.38839V4.78164L22.1496 3.70846V14.2042H20.0261L20.5505 13.0705C20.6282 12.9024 20.5245 12.7064 20.342 12.6762L19.6449 12.5607C19.5869 12.551 19.5273 12.56 19.4744 12.586L18.9669 12.8379C18.8594 12.8912 18.7299 12.8701 18.6448 12.7857L18.0524 12.1983C18.0001 12.1461 17.929 12.1168 17.855 12.1168H16.6658C16.511 12.1168 16.3854 12.2425 16.3854 12.3972V14.2042H14.1816V12.4179C14.1816 12.2516 14.0468 12.1168 13.8806 12.1168H10.8421C10.6758 12.1168 10.5411 12.2516 10.5411 12.4179V14.2042H8.03711V18.3208H24.7499V1.85342Z" fill="white"/>
</g>
<defs>
<clipPath id="clip0_2149_390">
<rect width="24" height="24" fill="white" transform="translate(0.75)"/>
</clipPath>
</defs>
</svg>
