<svg width="25" height="24" viewBox="0 0 25 24" fill="none" xmlns="http://www.w3.org/2000/svg">
<g clip-path="url(#clip0_2149_367)">
<path d="M13.8056 8.01108C13.8012 8.21659 13.6604 8.39389 13.4612 8.44446L8.33898 9.73895C8.30447 9.74828 8.26888 9.75218 8.23329 9.75001C8.13629 9.75023 8.0421 9.71681 7.96658 9.65561C7.86176 9.57011 7.8023 9.44077 7.80556 9.30557V4.94446H0.75V23H20.8611V4.94446H13.8056V8.01108ZM13.4167 15.4555C13.4171 16.7578 12.4783 17.8705 11.1944 18.089V20.8889H11.6556C11.901 20.8889 12.1 21.0879 12.1 21.3333C12.1 21.5788 11.901 21.7778 11.6556 21.7778H9.83898C9.59353 21.7778 9.39453 21.5788 9.39453 21.3333C9.39453 21.0879 9.59353 20.8889 9.83898 20.8889H10.2999V18.089C9.01628 17.8705 8.07726 16.7578 8.07769 15.4555V12.3668C8.07769 12.2517 8.12435 12.1417 8.20725 12.0621C8.29015 11.9824 8.40191 11.9399 8.51671 11.9445H12.9666C13.0816 11.9399 13.1931 11.9824 13.276 12.0621C13.3589 12.1417 13.4056 12.2517 13.4056 12.3668V15.4555H13.4167Z" fill="white"/>
<path d="M8.97217 15.4556C8.97217 16.4375 9.76817 17.2333 10.7499 17.2333C11.7317 17.2333 12.5277 16.4375 12.5277 15.4556V12.8334H8.97217V15.4556Z" fill="white"/>
<path d="M8.69434 4.94446V8.7333L12.9166 7.66668V4.94446H8.69434Z" fill="white"/>
<path d="M4.4056 1L1.35547 4.05556H21.0944L24.1445 1H4.4056Z" fill="white"/>
<path d="M21.75 4.70555V22.3444L24.75 19.2945V1.65564L21.75 4.70555Z" fill="white"/>
</g>
<defs>
<clipPath id="clip0_2149_367">
<rect width="24" height="24" fill="white" transform="translate(0.75)"/>
</clipPath>
</defs>
</svg>
