<svg width="24" height="25" viewBox="0 0 24 25" fill="none" xmlns="http://www.w3.org/2000/svg">
<g id="whatsapp">
<path id="Vector" fill-rule="evenodd" clip-rule="evenodd" d="M19.9589 4.50809C17.8539 2.40063 15.0545 1.23952 12.0721 1.23828C5.92662 1.23828 0.925095 6.23967 0.922623 12.3868C0.921799 14.3518 1.43513 16.2701 2.41086 17.9608L0.829102 23.7383L6.73961 22.1878C8.36819 23.0762 10.2017 23.5444 12.0676 23.5449H12.0722C18.217 23.5449 23.2191 18.5431 23.2214 12.3957C23.2227 9.4165 22.064 6.6154 19.9589 4.50809ZM12.0721 21.662H12.0683C10.4055 21.6613 8.77469 21.2144 7.35168 20.3703L7.01344 20.1694L3.50606 21.0895L4.44223 17.6698L4.22182 17.3192C3.29416 15.8438 2.80431 14.1384 2.80513 12.3875C2.80705 7.27815 6.96428 3.12134 12.0758 3.12134C14.551 3.12216 16.8778 4.08731 18.6274 5.83894C20.3769 7.59058 21.3399 9.91885 21.3391 12.395C21.3369 17.5048 17.1799 21.662 12.0721 21.662ZM17.1552 14.7215C16.8767 14.582 15.507 13.9083 15.2515 13.8152C14.9964 13.7222 14.8104 13.6759 14.6249 13.9547C14.4391 14.2335 13.9053 14.8611 13.7427 15.0469C13.5801 15.2328 13.4178 15.2561 13.1391 15.1166C12.8605 14.9772 11.9629 14.6829 10.8988 13.7339C10.0707 12.9952 9.5116 12.0829 9.349 11.8041C9.18668 11.5251 9.34763 11.3888 9.47122 11.2356C9.7728 10.8611 10.0748 10.4684 10.1676 10.2826C10.2606 10.0967 10.214 9.93396 10.1443 9.79457C10.0748 9.65518 9.51764 8.28395 9.28555 7.72598C9.05923 7.18298 8.82976 7.25632 8.65865 7.2478C8.49632 7.2397 8.31052 7.23805 8.12471 7.23805C7.93904 7.23805 7.63719 7.30768 7.38176 7.58673C7.12646 7.86565 6.40686 8.53952 6.40686 9.91075C6.40686 11.282 7.40511 12.6067 7.54436 12.7926C7.68361 12.9785 9.50885 15.7924 12.3034 16.999C12.968 17.2863 13.4869 17.4575 13.8916 17.5859C14.559 17.798 15.1661 17.768 15.6462 17.6964C16.1815 17.6163 17.2943 17.0223 17.5267 16.3717C17.7588 15.7209 17.7588 15.1632 17.689 15.0469C17.6195 14.9307 17.4337 14.8611 17.1552 14.7215Z" fill="white"/>
</g>
</svg>
