<svg width="24" height="25" viewBox="0 0 24 25" fill="none" xmlns="http://www.w3.org/2000/svg">
<g id="social-media">
<path id="Vector" d="M18.4031 1.13281H5.59692C2.8597 1.13281 0.632812 3.3597 0.632812 6.09692V18.9031C0.632812 21.6403 2.8597 23.8672 5.59692 23.8672H18.4031C21.1403 23.8672 23.3672 21.6403 23.3672 18.9031V6.09692C23.3672 3.3597 21.1403 1.13281 18.4031 1.13281ZM22.1953 18.9031C22.1953 20.9941 20.4941 22.6953 18.4031 22.6953H5.59692C3.50588 22.6953 1.80469 20.9941 1.80469 18.9031V6.09692C1.80469 4.00588 3.50588 2.30469 5.59692 2.30469H18.4031C20.4941 2.30469 22.1953 4.00588 22.1953 6.09692V18.9031ZM13.6137 11.425L18.0364 5.91275C18.2389 5.66033 18.1984 5.29156 17.946 5.08902C17.6936 4.88656 17.3249 4.92692 17.1223 5.17939L12.8625 10.4887L8.60269 5.17939C8.49145 5.04078 8.32336 4.96011 8.14566 4.96011H4.69561C4.47023 4.96011 4.26483 5.08939 4.16733 5.29259C4.06983 5.4958 4.09753 5.73692 4.23858 5.9127L10.3862 13.575L5.96358 19.0872C5.76108 19.3397 5.80153 19.7084 6.05391 19.911C6.16209 19.9978 6.29156 20.0399 6.42023 20.0399C6.5918 20.0399 6.76191 19.9648 6.87764 19.8206L11.1375 14.5113L15.3973 19.8206C15.5085 19.9592 15.6766 20.0399 15.8543 20.0399H19.3043H19.3053C19.6289 20.0399 19.8912 19.7776 19.8912 19.454C19.8912 19.3046 19.8353 19.1683 19.7433 19.0648L13.6137 11.425ZM16.1355 18.868L5.91698 6.13198H7.86455L18.083 18.868H16.1355Z" fill="white"/>
</g>
</svg>
